<?xml version="1.0" encoding="UTF-8" standalone="no"?>
<!-- Created with Inkscape (http://www.inkscape.org/) -->

<svg
   xmlns:dc="http://purl.org/dc/elements/1.1/"
   xmlns:cc="http://creativecommons.org/ns#"
   xmlns:rdf="http://www.w3.org/1999/02/22-rdf-syntax-ns#"
   xmlns:svg="http://www.w3.org/2000/svg"
   xmlns="http://www.w3.org/2000/svg"
   xmlns:sodipodi="http://sodipodi.sourceforge.net/DTD/sodipodi-0.dtd"
   xmlns:inkscape="http://www.inkscape.org/namespaces/inkscape"
   width="825.32001"
   height="109.17"
   id="svg4419"
   version="1.1"
   inkscape:version="0.48.1 "
   sodipodi:docname="Neues Dokument 3">
  <defs
     id="defs4421">
    <clipPath
       clipPathUnits="userSpaceOnUse"
       id="clipPath46">
      <path
         inkscape:connector-curvature="0"
         d="m 35.12,174.6 0,-76 663.11,0 0,76 -663.11,0 z"
         clip-rule="evenodd"
         id="path48" />
    </clipPath>
    <clipPath
       clipPathUnits="userSpaceOnUse"
       id="clipPath54">
      <path
         inkscape:connector-curvature="0"
         d="m 35.12,98.6 663.11,0 0,76 -663.11,0 0,-76 z"
         id="path56" />
    </clipPath>
    <clipPath
       clipPathUnits="userSpaceOnUse"
       id="clipPath64">
      <path
         inkscape:connector-curvature="0"
         d="m 0,0 674.646,0 0,85.0394 L 0,85.0394 0,0 z"
         id="path66" />
    </clipPath>
    <clipPath
       clipPathUnits="userSpaceOnUse"
       id="clipPath78">
      <path
         inkscape:connector-curvature="0"
         d="m 0,85.039 674.646,0 L 674.646,0 0,0 0,85.039 z"
         id="path80" />
    </clipPath>
  </defs>
  <sodipodi:namedview
     id="base"
     pagecolor="#ffffff"
     bordercolor="#666666"
     borderopacity="1.0"
     inkscape:pageopacity="0.0"
     inkscape:pageshadow="2"
     inkscape:zoom="1.0965037"
     inkscape:cx="412.66"
     inkscape:cy="54.585002"
     inkscape:document-units="px"
     inkscape:current-layer="layer1"
     showgrid="false"
     fit-margin-top="0"
     fit-margin-left="0"
     fit-margin-right="0"
     fit-margin-bottom="0"
     inkscape:window-width="1024"
     inkscape:window-height="708"
     inkscape:window-x="-4"
     inkscape:window-y="-4"
     inkscape:window-maximized="1" />
  <metadata
     id="metadata4424">
    <rdf:RDF>
      <cc:Work
         rdf:about="">
        <dc:format>image/svg+xml</dc:format>
        <dc:type
           rdf:resource="http://purl.org/dc/dcmitype/StillImage" />
        <dc:title></dc:title>
      </cc:Work>
    </rdf:RDF>
  </metadata>
  <g
     inkscape:label="Ebene 1"
     inkscape:groupmode="layer"
     id="layer1"
     transform="translate(54.111711,-385.17407)">
    <g
       id="g44"
       clip-path="url(#clipPath46)"
       transform="matrix(1.25,0,0,1.25,-102.48299,270.04977)">
      <g
         id="g50">
        <g
           id="g52"
           clip-path="url(#clipPath54)">
          <g
             id="g58"
             transform="matrix(0.9902216,0,0,-0.9902216,34.264,177.443)">
            <g
               id="g60">
              <g
                 id="g62"
                 clip-path="url(#clipPath64)">
                <g
                   id="g68">
                  <g
                     id="g70"
                     transform="translate(649.2168,23.3164)">
                    <path
                       d="m 0,0 -9.401,53.949 -6.738,0 -8.122,-55.375 -7.63,53.256 7.554,0 -0.011,2.119 -24.423,0 0.003,-2.119 5.212,0 10.637,-68.055 8.777,0.02 7.426,43.069 8.16,-43.096 8.642,0.02 11.037,68.042 6.873,0 -10e-4,2.119 -16.628,0 -0.013,-2.119 6.812,0 L 0,0 z"
                       style="fill:#0e88d3;fill-opacity:1;fill-rule:nonzero;stroke:none"
                       id="path72"
                       inkscape:connector-curvature="0" />
                  </g>
                  <g
                     id="g74">
                    <g
                       id="g76"
                       clip-path="url(#clipPath78)">
                      <g
                         id="g82"
                         transform="translate(562.3848,7.1445)">
                        <path
                           d="m 0,0 0.002,2.244 6.755,0.012 0,65.747 -7.165,0.005 -0.002,2.113 36.305,0 -0.037,-15.852 -1.778,-0.003 c -0.658,5.055 -0.967,10.809 -6.229,13.26 -2.25,0.407 -9.034,0.247 -9.034,0.247 l 0.01,-28.834 c 0,0 5.189,-0.756 7.069,1.016 1.955,1.616 3.074,4.989 3.065,7.501 l 1.842,0.031 0,-20.596 -1.699,0 c -0.591,3.578 -0.808,7.194 -3.166,9 -1.526,0.986 -7.114,0.749 -7.114,0.749 L 18.784,2.311 c 0,0 4.862,0.062 7.039,0.356 2.647,0.6 5.38,2.907 6.488,5.308 1.104,3.341 1.543,10.631 1.543,10.631 L 35.664,18.592 35.674,0 0,0 z"
                           style="fill:#0e88d3;fill-opacity:1;fill-rule:nonzero;stroke:none"
                           id="path84"
                           inkscape:connector-curvature="0" />
                      </g>
                      <g
                         id="g86"
                         transform="translate(558.1064,7.1426)">
                        <path
                           d="m 0,0 -25.57,0 -0.023,2.258 7.058,0 -0.007,65.708 -5.872,0 0,2.157 24.051,0 0,-2.157 -6.809,0 L -7.189,2.258 0,2.258 0,0 z"
                           style="fill:#0e88d3;fill-opacity:1;fill-rule:nonzero;stroke:none"
                           id="path88"
                           inkscape:connector-curvature="0" />
                      </g>
                      <g
                         id="g90"
                         transform="translate(528.3389,75.1084)">
                        <path
                           d="M 0,0 -12.512,-67.911 -24.089,-67.918 -37.383,0 l -3.452,0 0,2.157 22.578,0 0,-2.157 -6.349,0 c 0,0 10.717,-61.349 10.873,-61.351 L -2.974,0 l -6.024,0 0,2.157 12.507,0 L 3.509,0 0,0 z"
                           style="fill:#0e88d3;fill-opacity:1;fill-rule:nonzero;stroke:none"
                           id="path92"
                           inkscape:connector-curvature="0" />
                      </g>
                      <g
                         id="g94"
                         transform="translate(450.1719,7.0957)">
                        <path
                           d="m 0,0 0.018,2.201 4.985,0 0,65.851 -5.522,0.014 -0.002,2.104 35.276,0 0,-16.882 -1.848,0 c -0.344,5.363 -0.682,11.616 -6.101,14.069 -2.246,0.872 -7.321,0.452 -9.729,0.471 l 0.025,-29.585 c 0,0 5.884,-0.478 7.602,0.674 2.892,2.074 3.256,5.9 3.43,9.085 L 30.067,47.985 30.06,26.713 28.341,26.711 c -0.362,3.344 -1.152,6.695 -3.533,8.419 -1.71,0.762 -7.73,0.768 -7.73,0.768 L 17.122,2.201 c 4.362,-0.055 13.431,0.329 15.963,6.059 0.958,3.099 1.144,6.209 1.17,10.011 L 36.226,18.252 36.204,-0.002 0,0 z"
                           style="fill:#0e88d3;fill-opacity:1;fill-rule:nonzero;stroke:none"
                           id="path96"
                           inkscape:connector-curvature="0" />
                      </g>
                      <g
                         id="g98"
                         transform="translate(427.7344,53.4307)">
                        <path
                           d="m 0,0 c 0.366,6.833 0.827,15.743 -4.26,20.757 -1.553,0.962 -6.129,0.97 -8.226,0.909 l 0,-29.82 c 0,0 5.968,-0.34 7.76,0.345 C -1.607,-6.591 -0.568,-3.026 0,0 m 20.736,-44.126 0,-2.166 -15.344,0 c -0.845,1.25 -0.649,2.582 -0.903,4.07 -0.627,3.68 -3.661,22.86 -7.073,28.287 -1.322,2.22 -5.53,3.31 -8.403,3.488 l -1.499,-0.027 0,-33.589 6.397,0 0,-2.229 -25.893,0 0,2.229 7.33,0 0.017,65.74 -6.864,0.016 0.04,2.142 28.359,0 c 5.36,-0.122 9.999,-2.898 13.149,-7.352 3.149,-4.376 2.702,-12.205 0.644,-16.85 -2.924,-6.192 -9.314,-8.549 -15.38,-9.198 5.512,-0.511 11.008,-2.964 13.765,-7.959 4.128,-8.346 5.138,-17.346 8.174,-26.151 0.886,-0.64 3.484,-0.451 3.484,-0.451"
                           style="fill:#0e88d3;fill-opacity:1;fill-rule:nonzero;stroke:none"
                           id="path100"
                           inkscape:connector-curvature="0" />
                      </g>
                      <g
                         id="g102"
                         transform="translate(335.5723,7.2207)">
                        <path
                           d="m 0,0 0.016,2.208 6.608,0 0,65.676 -6.461,0 0.017,2.161 25.798,0 0.024,-2.161 -7.617,0 0,-65.676 c 0,0 6.495,0.022 9.214,0 3.113,0.597 5.312,3.524 6.422,6.235 0.799,2.79 0.828,6.208 0.774,9.161 l 2.28,-0.018 C 37.028,11.837 37.122,5.748 37.075,0 L 0,0 z"
                           style="fill:#0e88d3;fill-opacity:1;fill-rule:nonzero;stroke:none"
                           id="path104"
                           inkscape:connector-curvature="0" />
                      </g>
                      <g
                         id="g106"
                         transform="translate(305.3457,33.6836)">
                        <path
                           d="M 0,0 5.888,-0.029 -1.491,33.31 -6.969,-0.012 0,0 z m 4.127,-26.463 0.004,2.193 6.838,0.015 -4.419,21.466 -14.012,0 -3.726,-21.466 6.498,0 0.002,-2.208 -15.049,0 0.016,2.208 5.653,0 11.838,67.837 11.032,0 14.852,-67.837 4.165,0 0,-2.208 -23.692,0 z"
                           style="fill:#0e88d3;fill-opacity:1;fill-rule:nonzero;stroke:none"
                           id="path108"
                           inkscape:connector-curvature="0" />
                      </g>
                      <g
                         id="g110"
                         transform="translate(258.1787,7.2207)">
                        <path
                           d="m 0,0 0.005,2.208 6.504,0 0.002,65.676 -6.099,0 -0.001,2.161 24.892,0 0.037,-2.161 -6.334,0 L 19,2.208 l 6.031,0 L 25.015,0 0,0 z"
                           style="fill:#0e88d3;fill-opacity:1;fill-rule:nonzero;stroke:none"
                           id="path112"
                           inkscape:connector-curvature="0" />
                      </g>
                      <g
                         id="g114"
                         transform="translate(253.8037,7.2207)">
                        <path
                           d="M 0,0 -1.921,0 C -2.22,1.479 -2.05,2.941 -3.364,3.807 -5.385,3.668 -6.416,1.035 -8.285,0.506 c -4.378,-3.305 -10.653,-1 -14.909,1.055 -13.753,9.356 -16.105,26.002 -14.577,41.838 0.937,10.17 6.843,19.989 16.289,25.429 3.902,2.221 10.045,2.948 14.145,0.662 1.707,-0.325 2.62,-2.585 4.645,-2.136 0.782,0.693 0.79,1.67 0.797,2.68 l 1.867,0 0.002,-19.601 -2.26,-0.019 c -0.495,6.065 -0.208,12.744 -5.85,16.441 -2.939,1.578 -7.518,2.081 -10.258,-0.305 -4.306,-4.161 -5.905,-10.122 -6.827,-16.115 -1.61,-10.477 -1.559,-16.869 -0.266,-29.853 0.541,-5.83 2.905,-12.914 6.535,-17.161 1.711,-1.823 6.321,-2.181 8.662,-1.033 7.928,4.965 6.963,9.773 7.737,15.242 L 0.007,17.608 0,0 z"
                           style="fill:#0e88d3;fill-opacity:1;fill-rule:nonzero;stroke:none"
                           id="path116"
                           inkscape:connector-curvature="0" />
                      </g>
                      <g
                         id="g118"
                         transform="translate(216.1621,75.105)">
                        <path
                           d="m 0,0 -6.075,0 0.022,-67.884 -7.778,0 -22.817,57.901 0.013,-55.693 6.274,0 -0.015,-2.208 -15.641,0 0,2.208 6.386,0 0,65.676 -6.029,0 10e-4,2.161 17.109,0 L -9.043,-46.744 -9.065,0 l -5.455,0 0.015,2.161 14.529,0 L 0,0 z"
                           style="fill:#0e88d3;fill-opacity:1;fill-rule:nonzero;stroke:none"
                           id="path120"
                           inkscape:connector-curvature="0" />
                      </g>
                      <g
                         id="g122"
                         transform="translate(147.1006,33.8516)">
                        <path
                           d="M 0,0 -6.777,31.089 -12.016,-0.025 0,0 z m -1.306,-26.631 0,2.208 6.549,0 -4.698,21.948 -13.019,-0.006 -3.738,-21.942 6.905,0 0.028,-2.208 -16.521,0 0.017,2.208 6.324,0 12.095,67.837 11.188,0 14.338,-67.837 3.213,0 -0.017,-2.208 -22.664,0 z"
                           style="fill:#0e88d3;fill-opacity:1;fill-rule:nonzero;stroke:none"
                           id="path124"
                           inkscape:connector-curvature="0" />
                      </g>
                      <g
                         id="g126"
                         transform="translate(124.8018,75.105)">
                        <path
                           d="m 0,0 -6.029,0 0.016,-67.884 -9.136,0 -21.52,56.569 -0.026,-54.361 6.608,0 0.011,-2.208 -16.09,0 0.027,2.208 6.49,0 -0.048,65.676 -6.193,0 -0.012,2.161 17.41,0 19.586,-50.403 0.012,48.242 -6.072,0 0.016,2.161 14.962,0 L 0,0 z"
                           style="fill:#0e88d3;fill-opacity:1;fill-rule:nonzero;stroke:none"
                           id="path128"
                           inkscape:connector-curvature="0" />
                      </g>
                      <g
                         id="g130"
                         transform="translate(75.6221,77.2656)">
                        <path
                           d="m 0,0 -0.001,-2.161 -6.376,0 0.038,-65.676 6.696,0 0,-2.208 -26.798,0 0.015,2.208 8.218,0 c 0,0 -0.016,63.734 0,65.676 l -7.109,0 L -25.328,0 0,0 z"
                           style="fill:#0e88d3;fill-opacity:1;fill-rule:nonzero;stroke:none"
                           id="path132"
                           inkscape:connector-curvature="0" />
                      </g>
                      <g
                         id="g134"
                         transform="translate(48.3408,58.1416)">
                        <path
                           d="m 0,0 -1.771,0 c -0.583,4.899 -0.431,10.142 -4.053,13.823 -2.817,3.012 -9.058,3.283 -13.019,3.393 l 0,-29.761 6.311,0.031 c 3.163,-0.028 4.003,6.861 3.876,10.358 l 2.461,0.007 0,-21.663 -2.404,0 c 0.028,3.418 -0.527,9.236 -3.887,9.208 l -6.357,0 0,-34.109 7.741,0 0,-2.208 -28.691,0 0.018,2.208 9.046,0 0.049,65.69 -9.144,0.002 0.015,2.145 L 0,19.124 0,0 z"
                           style="fill:#0e88d3;fill-opacity:1;fill-rule:nonzero;stroke:none"
                           id="path136"
                           inkscape:connector-curvature="0" />
                      </g>
                      <g
                         id="g138"
                         transform="translate(14.042,13.7227)">
                        <path
                           d="m 0,0 -4.699,0 0,-1.5 -0.577,0 0,3.661 0.577,0 0,-1.499 L 0,0.662 0,0 z"
                           style="fill:#0e88d3;fill-opacity:1;fill-rule:nonzero;stroke:none"
                           id="path140"
                           inkscape:connector-curvature="0" />
                      </g>
                      <g
                         id="g142"
                         transform="translate(14.042,19.873)">
                        <path
                           d="m 0,0 -2.507,0 0,-2.446 2.507,0 0,-0.661 -5.276,0 0,0.661 2.192,0 0,2.446 -2.192,0 0,0.66 L 0,0.66 0,0 z"
                           style="fill:#0e88d3;fill-opacity:1;fill-rule:nonzero;stroke:none"
                           id="path144"
                           inkscape:connector-curvature="0" />
                      </g>
                      <g
                         id="g146"
                         transform="translate(14.042,25.4463)">
                        <path
                           d="m 0,0 0,-3.415 -5.276,0 0,3.338 0.569,0 0,-2.676 1.677,0 0,2.122 0.53,0 0,-2.122 1.931,0 0,2.753 L 0,0 z"
                           style="fill:#0e88d3;fill-opacity:1;fill-rule:nonzero;stroke:none"
                           id="path148"
                           inkscape:connector-curvature="0" />
                      </g>
                      <g
                         id="g150"
                         transform="translate(9.4736,30.4121)">
                        <path
                           d="m 0,0 2.53,-0.815 0,1.622 L 0,0 z M 4.568,1.484 3.03,0.953 3.03,-1 l 1.538,-0.469 0,-0.554 -5.276,1.708 0,0.76 5.276,1.715 0,-0.676 z"
                           style="fill:#0e88d3;fill-opacity:1;fill-rule:nonzero;stroke:none"
                           id="path152"
                           inkscape:connector-curvature="0" />
                      </g>
                      <g
                         id="g154"
                         transform="translate(8.7661,37.0293)">
                        <path
                           d="m 0,0 3.337,0 c 0.524,0 1.008,-0.03 1.431,-0.385 0.423,-0.353 0.585,-0.884 0.585,-1.422 0,-0.515 -0.108,-1.061 -0.508,-1.415 -0.43,-0.384 -0.962,-0.415 -1.508,-0.415 l -3.337,0 0,0.661 3.337,0 c 0.316,0 0.746,0.007 1.023,0.201 0.316,0.214 0.408,0.66 0.408,1.022 0,0.339 -0.107,0.723 -0.377,0.946 -0.3,0.254 -0.692,0.254 -1.054,0.254 L 0,-0.553 0,0 z"
                           style="fill:#0e88d3;fill-opacity:1;fill-rule:nonzero;stroke:none"
                           id="path156"
                           inkscape:connector-curvature="0" />
                      </g>
                      <g
                         id="g158"
                         transform="translate(12.4883,38.7656)">
                        <path
                           d="M 0,0 C 0.73,0.215 1.069,0.822 1.069,1.561 1.069,1.877 1,2.261 0.808,2.507 0.653,2.707 0.385,2.83 0.131,2.83 -0.4,2.83 -0.615,2.392 -0.73,1.93 L -0.946,1.053 C -1.03,0.699 -1.115,0.377 -1.369,0.1 c -0.246,-0.278 -0.608,-0.431 -0.977,-0.431 -1.015,0 -1.453,0.877 -1.453,1.792 0,0.884 0.438,1.592 1.292,1.876 l 0.161,-0.6 c -0.576,-0.115 -0.93,-0.73 -0.93,-1.292 0,-0.5 0.261,-1.131 0.838,-1.131 0.592,0 0.723,0.462 0.838,0.955 l 0.193,0.792 c 0.076,0.346 0.177,0.692 0.407,0.961 0.27,0.331 0.631,0.492 1.046,0.492 0.477,0 0.908,-0.207 1.2,-0.592 C 1.538,2.538 1.63,2.022 1.63,1.545 1.63,0.469 1.153,-0.238 0.131,-0.592 L 0,0 z"
                           style="fill:#0e88d3;fill-opacity:1;fill-rule:nonzero;stroke:none"
                           id="path160"
                           inkscape:connector-curvature="0" />
                      </g>
                      <g
                         id="g162"
                         transform="translate(14.042,44.3613)">
                        <path
                           d="m 0,0 -4.699,0 0,-1.5 -0.577,0 0,3.661 0.577,0 0,-1.499 L 0,0.662 0,0 z"
                           style="fill:#0e88d3;fill-opacity:1;fill-rule:nonzero;stroke:none"
                           id="path164"
                           inkscape:connector-curvature="0" />
                      </g>
                      <g
                         id="g166"
                         transform="translate(11.2192,49.3037)">
                        <path
                           d="m 0,0 c 0,0.354 -0.023,0.646 -0.292,0.907 -0.185,0.185 -0.438,0.269 -0.692,0.269 -0.308,0 -0.561,-0.115 -0.731,-0.369 -0.161,-0.23 -0.169,-0.453 -0.169,-0.73 l 0,-1.315 1.884,0 L 0,0 z m 2.823,1.2 -2.284,-0.977 0,-1.461 2.284,0 0,-0.661 -5.276,0 0,1.976 c 0,0.43 0.054,0.846 0.323,1.199 0.269,0.354 0.708,0.562 1.153,0.562 0.623,0 1.185,-0.369 1.354,-0.984 l 2.446,1.038 0,-0.692 z"
                           style="fill:#0e88d3;fill-opacity:1;fill-rule:nonzero;stroke:none"
                           id="path168"
                           inkscape:connector-curvature="0" />
                      </g>
                      <g
                         id="g170"
                         transform="translate(9.4736,53.8154)">
                        <path
                           d="m 0,0 2.53,-0.815 0,1.622 L 0,0 z M 4.568,1.484 3.03,0.954 3.03,-1 l 1.538,-0.469 0,-0.554 -5.276,1.708 0,0.761 5.276,1.715 0,-0.677 z"
                           style="fill:#0e88d3;fill-opacity:1;fill-rule:nonzero;stroke:none"
                           id="path172"
                           inkscape:connector-curvature="0" />
                      </g>
                      <g
                         id="g174"
                         transform="translate(14.042,59.9331)">
                        <path
                           d="m 0,0 0,-3.115 -5.276,0 0,0.662 4.691,0 0,2.453 L 0,0 z"
                           style="fill:#0e88d3;fill-opacity:1;fill-rule:nonzero;stroke:none"
                           id="path176"
                           inkscape:connector-curvature="0" />
                      </g>
                      <path
                         d="m 14.042,60.838 -5.276,0 0,0.661 5.276,0 0,-0.661 z"
                         style="fill:#0e88d3;fill-opacity:1;fill-rule:nonzero;stroke:none"
                         id="path178"
                         inkscape:connector-curvature="0" />
                      <g
                         id="g180"
                         transform="translate(9.4736,64.438)">
                        <path
                           d="m 0,0 2.53,-0.815 0,1.622 L 0,0 z M 4.568,1.484 3.03,0.954 3.03,-1 l 1.538,-0.469 0,-0.554 -5.276,1.708 0,0.761 5.276,1.715 0,-0.677 z"
                           style="fill:#0e88d3;fill-opacity:1;fill-rule:nonzero;stroke:none"
                           id="path182"
                           inkscape:connector-curvature="0" />
                      </g>
                      <g
                         id="g184"
                         transform="translate(14.042,70.6631)">
                        <path
                           d="m 0,0 -4.599,-2.684 4.599,0 0,-0.553 -5.276,0 0,0.83 4.299,2.499 -4.299,0 0,0.554 L 0,0.646 0,0 z"
                           style="fill:#0e88d3;fill-opacity:1;fill-rule:nonzero;stroke:none"
                           id="path186"
                           inkscape:connector-curvature="0" />
                      </g>
                    </g>
                  </g>
                </g>
              </g>
            </g>
          </g>
        </g>
      </g>
    </g>
  </g>
</svg>
