<svg width="203" height="234" viewBox="0 0 203 234" fill="none" xmlns="http://www.w3.org/2000/svg">
<path d="M0.55127 0.60791C0.55127 47.9466 0.55127 85.2852 0.55127 132.624C0.683134 188.389 45.9493 233.502 101.522 233.502C157.095 233.502 202.349 188.389 202.481 132.624C202.481 85.2852 202.481 47.9466 202.481 0.60791C135.17 0.60791 67.8623 0.60791 0.55127 0.60791Z" fill="#A51C30"/>
<path d="M101.522 233.012C46.22 233.012 1.17281 188.118 1.04127 132.623V132.347V132.07V131.793V131.516V131.24V130.964V130.688V130.412V130.137V129.861V129.586V129.312V129.037V128.763V128.488V128.215V127.941V127.667V127.394V127.121V126.848V126.575V126.303V126.031V125.759V125.487V125.215V124.944V124.673V124.402V124.131V123.86V123.59V123.32V123.05V122.78V122.51V122.241V121.971V121.702V121.434V121.165V120.896V120.628V120.36V120.092V119.825V119.557V119.29V119.023V118.756V118.489V118.222V117.956V117.69V117.424V117.158V116.892V116.627V116.361V116.096V115.831V115.566V115.302V115.037V114.773V114.509V114.245V113.981V113.717V113.454V113.191V112.927V112.664V112.402V112.139V111.876V111.614V111.352V111.09V110.828V110.566V110.305V110.044V109.782V109.521V109.26V109V108.739V108.478V108.218V107.958V107.698V107.438V107.178V106.919V106.659V106.4V106.141V105.882V105.623V105.364V105.106V104.847V104.589V104.33V104.072V103.814V103.557V103.299V103.041V102.784V102.527V102.27V102.013V101.756V101.499V101.242V100.986V100.729V100.473V100.217V99.9608V99.7049V99.4491V99.1934V98.9378V98.6824V98.427V98.1718V97.9167V97.6617V97.4068V97.152V96.8973V96.6427V96.3883V96.1339V95.8797V95.6255V95.3715V95.1175V94.8637V94.61V94.3563V94.1028V93.8494V93.596V93.3428V93.0896V92.8366V92.5836V92.3307V92.078V91.8253V91.5727V91.3202V91.0678V90.8155V90.5632V90.3111V90.059V89.807V89.5551V89.3033V89.0515V88.7999V88.5483V88.2968V88.0454V87.794V87.5428V87.2916V87.0404V86.7894V86.5384V86.2875V86.0367V85.7859V85.5352V85.2846V85.034V84.7835V84.5331V84.2828V84.0325V83.7822V83.532V83.2819V83.0319V82.7819V82.5319V82.2821V82.0322V81.7825V81.5328V81.2831V81.0335V80.7839V80.5344V80.285V80.0356V79.7862V79.5369V79.2876V79.0384V78.7892V78.5401V78.291V78.042V77.793V77.544V77.2951V77.0462V76.7973V76.5485V76.2998V76.051V75.8023V75.5536V75.305V75.0564V74.8078V74.5593V74.3107V74.0622V73.8138V73.5653V73.3169V73.0685V72.8202V72.5718V72.3235V72.0752V71.8269V71.5786V71.3304V71.0822V70.8339V70.5857V70.3376V70.0894V69.8412V69.5931V69.3449V69.0968V68.8487V68.6006V68.3525V68.1044V67.8563V67.6082V67.3601V67.112V66.864V66.6159V66.3678V66.1197V65.8716V65.6236V65.3755V65.1274V64.8793V64.6312V64.3831V64.135V63.8868V63.6387V63.3905V63.1424V62.8942V62.646V62.3978V62.1496V61.9014V61.6531V61.4049V61.1566V60.9083V60.66V60.4116V60.1632V59.9148V59.6664V59.418V59.1695V58.921V58.6725V58.424V58.1754V57.9268V57.6781V57.4294V57.1807V56.932V56.6832V56.4344V56.1856V55.9367V55.6878V55.4388V55.1898V54.9407V54.6917V54.4425V54.1934V53.9441V53.6949V53.4456V53.1962V52.9468V52.6973V52.4478V52.1983V51.9487V51.699V51.4493V51.1995V50.9497V50.6998V50.4499V50.1999V49.9498V49.6997V49.4495V49.1993V48.949V48.6986V48.4482V48.1977V47.9472V47.6965V47.4458V47.1951V46.9443V46.6933V46.4424V46.1913V45.9402V45.689V45.4377V45.1864V44.935V44.6835V44.4319V44.1802V43.9285V43.6767V43.4248V43.1728V42.9207V42.6686V42.4163V42.164V41.9116V41.6591V41.4065V41.1538V40.901V40.6482V40.3952V40.1421V39.889V39.6357V39.3824V39.129V38.8754V38.6218V38.3681V38.1142V37.8603V37.6062V37.3521V37.0978V36.8435V36.589V36.3345V36.0798V35.825V35.5701V35.3151V35.06V34.8047V34.5494V34.2939V34.0384V33.7827V33.5269V33.2709V33.0149V32.7587V32.5024V32.246V31.9895V31.7329V31.4761V31.2192V30.9621V30.705V30.4477V30.1903V29.9327V29.6751V29.4173V29.1593V28.9013V28.6431V28.3847V28.1262V27.8676V27.6089V27.35V27.091V26.8318V26.5725V26.313V26.0535V25.7937V25.5338V25.2738V25.0136V24.7533V24.4928V24.2322V23.9714V23.7105V23.4495V23.1882V22.9268V22.6653V22.4036V22.1418V21.8798V21.6176V21.3553V21.0928V20.8302V20.5674V20.3044V20.0413V19.778V19.5145V19.2509V18.9871V18.7231V18.459V18.1947V17.9302V17.6656V17.4008V17.1358V16.8706V16.6053V16.3397V16.0741V15.8082V15.5421V15.2759V15.0095V14.7429V14.4761V14.2092V13.942V13.6747V13.4072V13.1395V12.8716V12.6035V12.3353V12.0668V11.7982V11.5293V11.2603V10.9911V10.7217V10.452V10.1822V9.91222V9.64201V9.3716V9.10099V8.83018V8.55917V8.28796V8.01654V7.74491V7.47309V7.20105V6.92881V6.65636V6.38369V6.11082V5.83774V5.56445V5.29094V5.01722V4.74329V4.46914V4.19477V3.92019V3.64539V3.37036V3.09512V2.81966V2.54398V2.26807V1.99194V1.71559V1.43901V1.1622V1.09791H1.34007H1.73447H2.12887H2.52327H2.91767H3.31207H3.70647H4.10087H4.49527H4.88967H5.28407H5.67847H6.07287H6.46727H6.86167H7.25607H7.65047H8.04486H8.43926H8.83366H9.22806H9.62246H10.0169H10.4113H10.8057H11.2001H11.5945H11.9889H12.3833H12.7776H13.172H13.5664H13.9608H14.3552H14.7496H15.144H15.5384H15.9328H16.3272H16.7216H17.116H17.5104H17.9048H18.2992H18.6936H19.088H19.4824H19.8768H20.2712H20.6656H21.06H21.4544H21.8488H22.2432H22.6376H23.032H23.4264H23.8208H24.2152H24.6096H25.004H25.3984H25.7928H26.1872H26.5816H26.976H27.3703H27.7647H28.1591H28.5535H28.9479H29.3423H29.7367H30.1311H30.5255H30.9199H31.3143H31.7087H32.1031H32.4975H32.8919H33.2863H33.6807H34.0751H34.4695H34.8639H35.2583H35.6527H36.0471H36.4414H36.8358H37.2302H37.6246H38.019H38.4134H38.8078H39.2022H39.5966H39.991H40.3854H40.7798H41.1742H41.5686H41.963H42.3574H42.7518H43.1462H43.5406H43.9349H44.3293H44.7237H45.1181H45.5125H45.9069H46.3013H46.6957H47.0901H47.4845H47.8789H48.2733H48.6677H49.0621H49.4565H49.8509H50.2453H50.6396H51.034H51.4284H51.8228H52.2172H52.6116H53.006H53.4004H53.7948H54.1892H54.5836H54.978H55.3724H55.7668H56.1612H56.5555H56.9499H57.3443H57.7387H58.1331H58.5275H58.9219H59.3163H59.7107H60.1051H60.4995H60.8939H61.2883H61.6827H62.0771H62.4714H62.8658H63.2602H63.6546H64.049H64.4434H64.8378H65.2322H65.6266H66.021H66.4154H66.8098H67.2042H67.5985H67.9929H68.3873H68.7817H69.1761H69.5705H69.9649H70.3593H70.7537H71.1481H71.5425H71.9369H72.3313H72.7257H73.12H73.5144H73.9088H74.3032H74.6976H75.092H75.4864H75.8808H76.2752H76.6696H77.064H77.4584H77.8527H78.2471H78.6415H79.0359H79.4303H79.8247H80.2191H80.6135H81.0079H81.4023H81.7967H82.1911H82.5854H82.9798H83.3742H83.7686H84.163H84.5574H84.9518H85.3462H85.7406H86.135H86.5294H86.9238H87.3182H87.7125H88.1069H88.5013H88.8957H89.2901H89.6845H90.0789H90.4733H90.8677H91.2621H91.6565H92.0508H92.4452H92.8396H93.234H93.6284H94.0228H94.4172H94.8116H95.206H95.6004H95.9948H96.3892H96.7836H97.1779H97.5723H97.9667H98.3611H98.7555H99.1499H99.5443H99.9387H100.333H100.727H101.122H101.516H101.911H102.305H102.699H103.094H103.488H103.883H104.277H104.671H105.066H105.46H105.855H106.249H106.643H107.038H107.432H107.827H108.221H108.615H109.01H109.404H109.798H110.193H110.587H110.982H111.376H111.77H112.165H112.559H112.954H113.348H113.742H114.137H114.531H114.926H115.32H115.714H116.109H116.503H116.898H117.292H117.686H118.081H118.475H118.869H119.264H119.658H120.053H120.447H120.841H121.236H121.63H122.025H122.419H122.813H123.208H123.602H123.997H124.391H124.785H125.18H125.574H125.969H126.363H126.757H127.152H127.546H127.94H128.335H128.729H129.124H129.518H129.912H130.307H130.701H131.096H131.49H131.884H132.279H132.673H133.068H133.462H133.856H134.251H134.645H135.04H135.434H135.828H136.223H136.617H137.012H137.406H137.8H138.195H138.589H138.983H139.378H139.772H140.167H140.561H140.955H141.35H141.744H142.139H142.533H142.927H143.322H143.716H144.111H144.505H144.899H145.294H145.688H146.083H146.477H146.871H147.266H147.66H148.055H148.449H148.843H149.238H149.632H150.026H150.421H150.815H151.21H151.604H151.998H152.393H152.787H153.182H153.576H153.97H154.365H154.759H155.154H155.548H155.942H156.337H156.731H157.126H157.52H157.914H158.309H158.703H159.098H159.492H159.886H160.281H160.675H161.07H161.464H161.858H162.253H162.647H163.042H163.436H163.83H164.225H164.619H165.013H165.408H165.802H166.197H166.591H166.985H167.38H167.774H168.169H168.563H168.957H169.352H169.746H170.141H170.535H170.929H171.324H171.718H172.113H172.507H172.901H173.296H173.69H174.085H174.479H174.873H175.268H175.662H176.057H176.451H176.845H177.24H177.634H178.029H178.423H178.817H179.212H179.606H180.001H180.395H180.789H181.184H181.578H181.973H182.367H182.761H183.156H183.55H183.945H184.339H184.733H185.128H185.522H185.916H186.311H186.705H187.1H187.494H187.888H188.283H188.677H189.072H189.466H189.86H190.255H190.649H191.044H191.438H191.832H192.227H192.621H193.016H193.41H193.804H194.199H194.593H194.988H195.382H195.776H196.171H196.565H196.96H197.354H197.748H198.143H198.537H198.932H199.326H199.72H200.115H200.509H200.904H201.298H201.692H201.991V132.623C201.86 188.118 156.824 233.012 101.522 233.012Z" stroke="#332829" stroke-width="0.98"/>
<path fill-rule="evenodd" clip-rule="evenodd" d="M18.6091 44.6714H93.0981V108.206H18.4229L18.6091 44.6714Z" fill="#A51C30"/>
<path fill-rule="evenodd" clip-rule="evenodd" d="M14.802 39.8013H89.291V103.336H14.6157L14.802 39.8013Z" fill="#332829" stroke="#332829" stroke-width="0.98"/>
<path fill-rule="evenodd" clip-rule="evenodd" d="M17.4092 40.5575L18.5265 100.311H85.3804L86.3115 40.0532L83.1457 36.7756C76.1959 39.3978 72.1015 37.9177 66.9444 36.7756C62.4138 35.4827 57.8483 34.3633 51.8603 40.3054C48.1936 37.6089 45.8173 33.9296 34.5416 37.0278C29.8861 37.9794 25.2305 38.72 20.5749 37.0278L17.4092 40.5575Z" fill="#D7D7D7" stroke="#332829" stroke-width="0.98"/>
<path fill-rule="evenodd" clip-rule="evenodd" d="M20.5743 37.2798L21.8778 95.5201L18.5259 100.31L21.6916 95.268C25.3285 97.3705 30.1737 96.7467 35.2859 95.5201C45.9824 94.31 47.6887 97.3134 51.9032 99.2375C58.7272 93.8086 63.2985 95.741 68.2473 96.0244C72.8408 96.6684 77.4343 97.845 82.0278 95.268L85.0073 100.058L81.8415 94.7638L83.1451 36.7756C83.1451 36.7756 81.1873 38.4887 74.6599 38.0061C65.6703 37.3414 64.5721 35.7592 61.3485 35.6626C57.6999 35.5532 52.4327 39.1922 51.8454 39.6952C49.6634 37.7579 46.2741 36.0649 41.8562 35.802C38.0181 35.5735 32.7887 37.4449 26.9939 37.7579C24.0948 37.9144 20.5743 37.2798 20.5743 37.2798Z" fill="white" stroke="#332829" stroke-width="0.98"/>
<path d="M25.4037 95.7249L23.5 37.2834H26.0383H30.4802V96.5366H27.942L25.4037 95.7249Z" fill="#F2F2F2"/>
<path fill-rule="evenodd" clip-rule="evenodd" d="M45.0752 36.4717L43.8061 94.9132L48.248 96.5366V37.2834L45.0752 36.4717Z" fill="#F2F2F2"/>
<path d="M48.248 37.2834V96.5366L51.4209 98.9717V97.3483L52.0554 40.5301L48.248 37.2834Z" fill="#D7D7D7"/>
<path d="M25.4037 95.7249L23.5 37.2834H26.0383H30.4802V96.5366H27.942L25.4037 95.7249Z" fill="#F2F2F2"/>
<path d="M43.8061 94.9132L45.0752 36.4717L48.248 37.2834V96.5366L43.8061 94.9132Z" fill="#F2F2F2"/>
<path d="M78.0729 96.2898L79.9766 37.8483H77.4383H72.9963V97.1015H75.5346L78.0729 96.2898Z" fill="#F2F2F2"/>
<path fill-rule="evenodd" clip-rule="evenodd" d="M58.4013 37.0366L59.6705 95.4782L55.2285 97.1015V37.8483L58.4013 37.0366Z" fill="#F2F2F2"/>
<path d="M55.2285 37.8483V97.1015L52.0557 99.5366V97.9132L51.4211 41.0951L55.2285 37.8483Z" fill="#D7D7D7"/>
<path d="M78.0729 96.2898L79.9766 37.8483H77.4383H72.9963V97.1015H75.5346L78.0729 96.2898Z" fill="#F2F2F2"/>
<path d="M59.6705 95.4782L58.4014 37.0366L55.2285 37.8483V97.1015L59.6705 95.4782Z" fill="#F2F2F2"/>
<path fill-rule="evenodd" clip-rule="evenodd" d="M20.5743 37.2798L21.8778 95.5201L18.5259 100.31L21.6916 95.268C25.3285 97.3705 30.1737 96.7467 35.2859 95.5201C45.9824 94.31 47.6887 97.3134 51.9032 99.2375C58.7272 93.8086 63.2985 95.741 68.2473 96.0244C72.8408 96.6684 77.4343 97.845 82.0278 95.268L85.0073 100.058L81.8415 94.7638L83.1451 36.7756C83.1451 36.7756 81.1873 38.4887 74.6599 38.0061C65.6703 37.3414 64.5721 35.7592 61.3485 35.6626C57.6999 35.5532 52.4327 39.1922 51.8454 39.6952C49.6634 37.7579 46.2741 36.0649 41.8562 35.802C38.0181 35.5735 32.7887 37.4449 26.9939 37.7579C24.0948 37.9144 20.5743 37.2798 20.5743 37.2798Z" stroke="#332829" stroke-width="0.98"/>
<path d="M51.8604 99.0501V39.8013" stroke="#332829" stroke-width="0.98"/>
<path fill-rule="evenodd" clip-rule="evenodd" d="M51.8948 99.0684C50.3183 100.163 49.1439 101.561 48.707 103.513C51.5454 108.405 53.3681 106.27 55.0825 103.384C54.3677 101.38 53.2425 100.044 51.8948 99.0684Z" fill="#332829" stroke="#332829" stroke-width="0.98"/>
<path d="M19.447 98.6667C23.0839 100.769 27.855 99.6854 33.0413 99.1801C42.2135 98.2866 46.0654 99.2177 49.6586 100.545M20.0596 97.8827C23.6965 99.9852 28.4755 99.0204 33.6539 98.3961C43.0092 97.2683 46.678 98.9564 50.2712 100.284M20.8764 97.0986C24.5133 99.2011 29.299 98.3216 34.4707 97.6121C43.7162 96.3437 47.4948 98.6951 51.088 100.023M21.489 96.3146C25.1259 98.4171 29.9347 97.5117 35.0833 96.5667C44.0359 94.9235 48.1074 98.4337 51.7006 99.7615M18.1255 40.1558L19.2428 98.6667M18.7381 39.3718L19.8554 97.8826M19.3507 38.5877L20.468 97.0986M19.9633 37.8037L21.0806 96.3146" stroke="#332829" stroke-width="0.2"/>
<path d="M84.3688 98.6667C80.7319 100.769 75.9608 99.6854 70.7745 99.1801C61.6023 98.2866 57.7504 99.2177 54.1572 100.545M83.7562 97.8827C80.1193 99.9852 75.3403 99.0204 70.1619 98.3961C60.8066 97.2683 57.1378 98.9564 53.5446 100.284M82.9394 97.0986C79.3025 99.2011 74.5168 98.3216 69.3451 97.6121C60.0997 96.3437 56.321 98.6951 52.7278 100.023M82.3268 96.3146C78.6899 98.4171 73.8811 97.5117 68.7325 96.5667C59.7799 94.9235 55.7084 98.4337 52.1152 99.7615M85.6903 40.1558L84.573 98.6667M85.0777 39.3718L83.9604 97.8826M84.4651 38.5877L83.3478 97.0986M83.8525 37.8037L82.7352 96.3146" stroke="#332829" stroke-width="0.2"/>
<path d="M15.5449 49.1606H8.34473V58.8813H15.5449V49.1606Z" fill="#332829"/>
<path d="M15.5449 83.5361H8.34473V93.2568H15.5449V83.5361Z" fill="#332829"/>
<path d="M96.4131 49.1606H89.2129V58.8813H96.4131V49.1606Z" fill="#332829"/>
<path d="M96.4131 83.5361H89.2129V93.2568H96.4131V83.5361Z" fill="#332829"/>
<path fill-rule="evenodd" clip-rule="evenodd" d="M116.883 44.6714H191.373V108.206H116.697L116.883 44.6714Z" fill="#A51C30"/>
<path fill-rule="evenodd" clip-rule="evenodd" d="M113.076 39.8013H187.565V103.336H112.89L113.076 39.8013Z" fill="#332829" stroke="#332829" stroke-width="0.98"/>
<path fill-rule="evenodd" clip-rule="evenodd" d="M115.684 40.5575L116.801 100.311H183.655L184.586 40.0532L181.42 36.7756C174.47 39.3978 170.376 37.9177 165.219 36.7756C160.688 35.4827 156.123 34.3633 150.135 40.3054C146.468 37.6089 144.092 33.9296 132.816 37.0278C128.16 37.9794 123.505 38.72 118.849 37.0278L115.684 40.5575Z" fill="#D7D7D7" stroke="#332829" stroke-width="0.98"/>
<path fill-rule="evenodd" clip-rule="evenodd" d="M118.849 37.2798L120.152 95.5201L116.8 100.31L119.966 95.268C123.603 97.3705 128.448 96.7467 133.56 95.5201C144.257 94.31 145.963 97.3134 150.178 99.2375C157.002 93.8086 161.573 95.741 166.522 96.0244C171.115 96.6684 175.709 97.845 180.302 95.268L183.282 100.058L180.116 94.7638L181.42 36.7756C181.42 36.7756 179.462 38.4887 172.934 38.0061C163.945 37.3414 162.847 35.7592 159.623 35.6626C155.974 35.5532 150.707 39.1922 150.12 39.6952C147.938 37.7579 144.548 36.0649 140.131 35.802C136.293 35.5735 131.063 37.4449 125.268 37.7579C122.369 37.9144 118.849 37.2798 118.849 37.2798Z" fill="white" stroke="#332829" stroke-width="0.98"/>
<path d="M123.678 95.7249L121.774 37.2834H124.313H128.755V96.5366H126.216L123.678 95.7249Z" fill="#F2F2F2"/>
<path fill-rule="evenodd" clip-rule="evenodd" d="M143.35 36.4717L142.08 94.9132L146.522 96.5366V37.2834L143.35 36.4717Z" fill="#F2F2F2"/>
<path d="M146.522 37.2834V96.5366L149.695 98.9717V97.3483L150.33 40.5301L146.522 37.2834Z" fill="#D7D7D7"/>
<path d="M123.678 95.7249L121.774 37.2834H124.313H128.755V96.5366H126.216L123.678 95.7249Z" fill="#F2F2F2"/>
<path d="M142.08 94.9132L143.35 36.4717L146.522 37.2834V96.5366L142.08 94.9132Z" fill="#F2F2F2"/>
<path d="M176.347 96.2898L178.251 37.8483H175.713H171.271V97.1015H173.809L176.347 96.2898Z" fill="#F2F2F2"/>
<path fill-rule="evenodd" clip-rule="evenodd" d="M156.676 37.0366L157.945 95.4782L153.503 97.1015V37.8483L156.676 37.0366Z" fill="#F2F2F2"/>
<path d="M153.503 37.8483V97.1015L150.33 99.5366V97.9132L149.696 41.0951L153.503 37.8483Z" fill="#D7D7D7"/>
<path d="M176.347 96.2898L178.251 37.8483H175.713H171.271V97.1015H173.809L176.347 96.2898Z" fill="#F2F2F2"/>
<path d="M157.945 95.4782L156.676 37.0366L153.503 37.8483V97.1015L157.945 95.4782Z" fill="#F2F2F2"/>
<path fill-rule="evenodd" clip-rule="evenodd" d="M118.849 37.2798L120.152 95.5201L116.8 100.31L119.966 95.268C123.603 97.3705 128.448 96.7467 133.56 95.5201C144.257 94.31 145.963 97.3134 150.178 99.2375C157.002 93.8086 161.573 95.741 166.522 96.0244C171.115 96.6684 175.709 97.845 180.302 95.268L183.282 100.058L180.116 94.7638L181.42 36.7756C181.42 36.7756 179.462 38.4887 172.934 38.0061C163.945 37.3414 162.847 35.7592 159.623 35.6626C155.974 35.5532 150.707 39.1922 150.12 39.6952C147.938 37.7579 144.548 36.0649 140.131 35.802C136.293 35.5735 131.063 37.4449 125.268 37.7579C122.369 37.9144 118.849 37.2798 118.849 37.2798Z" stroke="#332829" stroke-width="0.98"/>
<path d="M150.135 99.0501V39.8013" stroke="#332829" stroke-width="0.98"/>
<path fill-rule="evenodd" clip-rule="evenodd" d="M150.169 99.0684C148.593 100.163 147.418 101.561 146.981 103.513C149.82 108.405 151.643 106.27 153.357 103.384C152.642 101.38 151.517 100.044 150.169 99.0684Z" fill="#332829" stroke="#332829" stroke-width="0.98"/>
<path d="M117.721 98.6667C121.358 100.769 126.129 99.6854 131.316 99.1801C140.488 98.2866 144.34 99.2177 147.933 100.545M118.334 97.8827C121.971 99.9852 126.75 99.0204 131.928 98.3961C141.284 97.2683 144.952 98.9564 148.546 100.284M119.151 97.0986C122.788 99.2011 127.573 98.3216 132.745 97.6121C141.991 96.3437 145.769 98.6951 149.362 100.023M119.763 96.3146C123.4 98.4171 128.209 97.5117 133.358 96.5667C142.31 94.9235 146.382 98.4337 149.975 99.7615M116.4 40.1558L117.517 98.6667M117.013 39.3718L118.13 97.8826M117.625 38.5877L118.742 97.0986M118.238 37.8037L119.355 96.3146" stroke="#332829" stroke-width="0.2"/>
<path d="M182.643 98.6667C179.006 100.769 174.235 99.6854 169.049 99.1801C159.877 98.2866 156.025 99.2177 152.432 100.545M182.031 97.8827C178.394 99.9852 173.615 99.0204 168.436 98.3961C159.081 97.2683 155.412 98.9564 151.819 100.284M181.214 97.0986C177.577 99.2011 172.791 98.3216 167.62 97.6121C158.374 96.3437 154.595 98.6951 151.002 100.023M180.601 96.3146C176.964 98.4171 172.156 97.5117 167.007 96.5667C158.054 94.9235 153.983 98.4337 150.39 99.7615M183.965 40.1558L182.847 98.6667M183.352 39.3718L182.235 97.8826M182.74 38.5877L181.622 97.0986M182.127 37.8037L181.01 96.3146" stroke="#332829" stroke-width="0.2"/>
<path d="M113.819 49.1606H106.619V58.8813H113.819V49.1606Z" fill="#332829"/>
<path d="M113.819 83.5361H106.619V93.2568H113.819V83.5361Z" fill="#332829"/>
<path d="M194.688 49.1606H187.487V58.8813H194.688V49.1606Z" fill="#332829"/>
<path d="M194.688 83.5361H187.487V93.2568H194.688V83.5361Z" fill="#332829"/>
<path fill-rule="evenodd" clip-rule="evenodd" d="M66.5441 134.915H141.033V198.449H66.3579L66.5441 134.915Z" fill="#A51C30"/>
<path fill-rule="evenodd" clip-rule="evenodd" d="M62.737 130.044H137.226V193.579H62.5508L62.737 130.044Z" fill="#332829" stroke="#332829" stroke-width="0.98"/>
<path fill-rule="evenodd" clip-rule="evenodd" d="M65.3442 130.801L66.4616 190.554H133.315L134.247 130.296L131.081 127.019C124.131 129.641 120.037 128.161 114.879 127.019C110.349 125.726 105.783 124.606 99.7954 130.549C96.1287 127.852 93.7523 124.173 82.4767 127.271C77.8211 128.223 73.1656 128.963 68.51 127.271L65.3442 130.801Z" fill="#D7D7D7" stroke="#332829" stroke-width="0.98"/>
<path fill-rule="evenodd" clip-rule="evenodd" d="M68.5094 127.523L69.8129 185.763L66.4609 190.554L69.6267 185.511C73.2636 187.614 78.1087 186.99 83.221 185.763C93.9175 184.553 95.6238 187.557 99.8383 189.481C106.662 184.052 111.234 185.984 116.182 186.268C120.776 186.912 125.369 188.088 129.963 185.511L132.942 190.301L129.777 185.007L131.08 127.019C131.08 127.019 129.122 128.732 122.595 128.249C113.605 127.585 112.507 126.002 109.284 125.906C105.635 125.796 100.368 129.435 99.7805 129.938C97.5984 128.001 94.2091 126.308 89.7913 126.045C85.9532 125.817 80.7237 127.688 74.929 128.001C72.0299 128.158 68.5094 127.523 68.5094 127.523Z" fill="white" stroke="#332829" stroke-width="0.98"/>
<path d="M73.3388 185.968L71.4351 127.527H73.9733H78.4153V186.78H75.877L73.3388 185.968Z" fill="#F2F2F2"/>
<path fill-rule="evenodd" clip-rule="evenodd" d="M93.0103 126.715L91.7411 185.156L96.1831 186.78V127.527L93.0103 126.715Z" fill="#F2F2F2"/>
<path d="M96.1831 127.527V186.78L99.3559 189.215V187.591L99.9905 130.773L96.1831 127.527Z" fill="#D7D7D7"/>
<path d="M73.3388 185.968L71.4351 127.527H73.9733H78.4153V186.78H75.877L73.3388 185.968Z" fill="#F2F2F2"/>
<path d="M91.7411 185.156L93.0103 126.715L96.1831 127.527V186.78L91.7411 185.156Z" fill="#F2F2F2"/>
<path d="M126.008 186.533L127.912 128.091H125.373H120.931V187.345H123.47L126.008 186.533Z" fill="#F2F2F2"/>
<path fill-rule="evenodd" clip-rule="evenodd" d="M106.336 127.28L107.606 185.721L103.164 187.345V128.091L106.336 127.28Z" fill="#F2F2F2"/>
<path d="M103.164 128.091V187.345L99.9908 189.78V188.156L99.3562 131.338L103.164 128.091Z" fill="#D7D7D7"/>
<path d="M126.008 186.533L127.912 128.091H125.373H120.931V187.345H123.47L126.008 186.533Z" fill="#F2F2F2"/>
<path d="M107.606 185.721L106.336 127.28L103.164 128.091V187.345L107.606 185.721Z" fill="#F2F2F2"/>
<path fill-rule="evenodd" clip-rule="evenodd" d="M68.5094 127.523L69.8129 185.763L66.4609 190.554L69.6267 185.511C73.2636 187.614 78.1087 186.99 83.221 185.763C93.9175 184.553 95.6238 187.557 99.8383 189.481C106.662 184.052 111.234 185.984 116.182 186.268C120.776 186.912 125.369 188.088 129.963 185.511L132.942 190.301L129.777 185.007L131.08 127.019C131.08 127.019 129.122 128.732 122.595 128.249C113.605 127.585 112.507 126.002 109.284 125.906C105.635 125.796 100.368 129.435 99.7805 129.938C97.5984 128.001 94.2091 126.308 89.7913 126.045C85.9532 125.817 80.7237 127.688 74.929 128.001C72.0299 128.158 68.5094 127.523 68.5094 127.523Z" stroke="#332829" stroke-width="0.98"/>
<path d="M99.7954 189.293V130.044" stroke="#332829" stroke-width="0.98"/>
<path fill-rule="evenodd" clip-rule="evenodd" d="M99.8298 189.312C98.2534 190.407 97.0789 191.804 96.6421 193.756C99.4804 198.649 101.303 196.513 103.018 193.627C102.303 191.624 101.178 190.287 99.8298 189.312Z" fill="#332829" stroke="#332829" stroke-width="0.98"/>
<path d="M67.3821 188.91C71.019 191.012 75.7901 189.929 80.9763 189.423C90.1486 188.53 94.0005 189.461 97.5936 190.789M67.9947 188.126C71.6316 190.228 76.4106 189.264 81.5889 188.639C90.9442 187.511 94.6131 189.2 98.2062 190.527M68.8115 187.342C72.4484 189.444 77.2341 188.565 82.4057 187.855C91.6512 186.587 95.4299 188.938 99.023 190.266M69.4241 186.558C73.061 188.66 77.8697 187.755 83.0183 186.81C91.9709 185.167 96.0425 188.677 99.6356 190.005M66.0605 130.399L67.1779 188.91M66.6731 129.615L67.7905 188.126M67.2858 128.831L68.4031 187.342M67.8984 128.047L69.0157 186.558" stroke="#332829" stroke-width="0.2"/>
<path d="M132.304 188.91C128.667 191.012 123.896 189.929 118.71 189.423C109.537 188.53 105.685 189.461 102.092 190.789M131.691 188.126C128.054 190.228 123.275 189.264 118.097 188.639C108.742 187.511 105.073 189.2 101.48 190.527M130.874 187.342C127.238 189.444 122.452 188.565 117.28 187.855C108.035 186.587 104.256 188.938 100.663 190.266M130.262 186.558C126.625 188.66 121.816 187.755 116.668 186.81C107.715 185.167 103.643 188.677 100.05 190.005M133.625 130.399L132.508 188.91M133.013 129.615L131.895 188.126M132.4 128.831L131.283 187.342M131.788 128.047L130.67 186.558" stroke="#332829" stroke-width="0.2"/>
<path d="M63.48 139.404H56.2798V149.125H63.48V139.404Z" fill="#332829"/>
<path d="M63.48 173.779H56.2798V183.5H63.48V173.779Z" fill="#332829"/>
<path d="M144.348 139.404H137.148V149.125H144.348V139.404Z" fill="#332829"/>
<path d="M144.348 173.779H137.148V183.5H144.348V173.779Z" fill="#332829"/>
<path d="M36.8252 57.0039V57.6533C35.9479 57.6647 35.3498 57.7217 35.0308 57.8242C34.4725 58.0065 34.1934 58.3768 34.1934 58.9351C34.1934 59.2199 34.2902 59.6187 34.4839 60.1313C34.689 60.644 35.0649 61.5042 35.6118 62.7119L41.0806 74.897L46.0537 61.7036C46.2702 61.1226 46.4354 60.6326 46.5493 60.2339C46.6632 59.8351 46.7202 59.5104 46.7202 59.2598C46.7202 58.5876 46.4297 58.1318 45.8486 57.8926C45.5068 57.7559 44.9429 57.6761 44.1567 57.6533V57.0039H51.3174V57.6021C50.5768 57.7046 50.0299 57.904 49.6768 58.2002C49.1413 58.6445 48.6115 59.5389 48.0874 60.8833L40.3457 80.5708H39.8159L31.1855 61.3276C30.4564 59.6984 29.8696 58.6844 29.4253 58.2856C28.9924 57.8869 28.3543 57.659 27.5112 57.6021V57.0039H36.8252ZM52.6333 79.5283C53.9207 79.3916 54.7524 79.1637 55.1284 78.8447C55.5158 78.5143 55.7095 77.6883 55.7095 76.3667V60.7979C55.7095 59.556 55.5215 58.7471 55.1455 58.3711C54.7695 57.9837 53.9321 57.7445 52.6333 57.6533V57.0039H71.2271L71.3467 62.0283H70.458C70.1618 60.4788 69.7174 59.4762 69.125 59.0205C68.5326 58.5648 67.2109 58.3369 65.1602 58.3369H60.4092C59.8965 58.3369 59.5775 58.4224 59.4521 58.5933C59.3382 58.7528 59.2812 59.0604 59.2812 59.5161V67.3262H64.6646C66.1571 67.3262 67.1084 67.104 67.5186 66.6597C67.9287 66.2153 68.2591 65.3153 68.5098 63.9595H69.3301V72.0601H68.5098C68.2477 70.7043 67.9116 69.8099 67.5015 69.377C67.0913 68.9326 66.1457 68.7104 64.6646 68.7104H59.2812V77.375C59.2812 78.07 59.4977 78.4801 59.9307 78.6055C60.375 78.7308 61.6909 78.7935 63.8784 78.7935C66.2482 78.7935 67.9971 78.5371 69.125 78.0244C70.2529 77.5003 71.2669 76.2414 72.167 74.2476H73.1411L71.5518 80.1606H52.6333V79.5283Z" fill="#332829"/>
<path d="M136.986 68.1807C139.504 68.0895 141.304 67.8275 142.386 67.3945C144.243 66.6312 145.172 65.1956 145.172 63.0879C145.172 61.0599 144.34 59.6756 142.677 58.9351C141.788 58.5363 140.609 58.3369 139.139 58.3369C138.148 58.3369 137.538 58.411 137.311 58.5591C137.094 58.6958 136.986 59.0262 136.986 59.5503V68.1807ZM130.423 79.5283C131.768 79.403 132.605 79.141 132.936 78.7422C133.266 78.3434 133.431 77.4149 133.431 75.9565V60.7979C133.431 59.5674 133.243 58.7642 132.867 58.3882C132.503 58.0008 131.688 57.7559 130.423 57.6533V57.0039H140.113C142.13 57.0039 143.81 57.2603 145.155 57.7729C147.707 58.7414 148.983 60.5244 148.983 63.1221C148.983 64.8652 148.413 66.2039 147.274 67.1382C146.146 68.0724 144.608 68.6877 142.66 68.9839L149.872 77.8535C150.316 78.4004 150.76 78.7992 151.205 79.0498C151.649 79.3005 152.219 79.46 152.914 79.5283V80.1606H147.274L138.934 69.394L136.986 69.4795V76.3667C136.986 77.6655 137.18 78.4915 137.567 78.8447C137.966 79.1865 138.826 79.4144 140.147 79.5283V80.1606H130.423V79.5283ZM153.939 79.5283C155.363 79.4258 156.286 79.215 156.708 78.896C157.129 78.5656 157.34 77.7225 157.34 76.3667V60.7979C157.34 59.5104 157.129 58.6844 156.708 58.3198C156.286 57.9438 155.363 57.7217 153.939 57.6533V57.0039H164.295V57.6533C162.871 57.7217 161.948 57.9438 161.527 58.3198C161.105 58.6844 160.895 59.5104 160.895 60.7979V76.3667C160.895 77.7225 161.105 78.5656 161.527 78.896C161.948 79.215 162.871 79.4258 164.295 79.5283V80.1606H153.939V79.5283Z" fill="#332829"/>
<path d="M69.5864 147.247H89.3594L89.5474 153.194H88.71C88.2998 151.326 87.7757 150.112 87.1377 149.554C86.5111 148.985 85.1838 148.7 83.1558 148.7H81.2075V166.61C81.2075 167.966 81.4183 168.809 81.8398 169.139C82.2614 169.458 83.1842 169.669 84.6084 169.771V170.404H74.4058V169.771C75.8869 169.658 76.8097 169.413 77.1743 169.037C77.5389 168.661 77.7212 167.715 77.7212 166.2V148.7H75.7729C73.8361 148.7 72.5145 148.979 71.8081 149.537C71.1131 150.095 70.589 151.314 70.2358 153.194H69.3813L69.5864 147.247ZM103.117 161.415L99.0664 151.776L95.0674 161.415H103.117ZM88.0093 170.404V169.771C88.9093 169.669 89.5815 169.327 90.0259 168.746C90.4816 168.165 91.2563 166.587 92.3501 164.012L99.6475 146.837H100.331L109.047 166.678C109.628 168 110.089 168.82 110.431 169.139C110.784 169.447 111.371 169.658 112.191 169.771V170.404H103.288V169.771C104.313 169.68 104.974 169.572 105.27 169.447C105.566 169.31 105.714 168.985 105.714 168.473C105.714 168.302 105.657 168 105.543 167.567C105.43 167.134 105.27 166.678 105.065 166.2L103.612 162.833H94.4521C93.5407 165.123 92.9938 166.524 92.8115 167.037C92.6406 167.538 92.5552 167.937 92.5552 168.233C92.5552 168.826 92.7944 169.236 93.2729 169.464C93.5692 169.601 94.1274 169.703 94.9478 169.771V170.404H88.0093ZM115.045 163.363C115.638 164.935 116.333 166.188 117.13 167.123C118.52 168.752 120.246 169.566 122.309 169.566C123.425 169.566 124.388 169.213 125.197 168.507C126.017 167.8 126.427 166.815 126.427 165.55C126.427 164.411 126.017 163.42 125.197 162.577C124.661 162.041 123.533 161.238 121.813 160.167L118.822 158.304C117.922 157.735 117.204 157.159 116.669 156.578C115.678 155.473 115.182 154.254 115.182 152.921C115.182 151.155 115.769 149.685 116.942 148.512C118.116 147.338 119.671 146.751 121.608 146.751C122.405 146.751 123.362 146.951 124.479 147.35C125.607 147.737 126.251 147.931 126.41 147.931C126.843 147.931 127.139 147.828 127.299 147.623C127.47 147.418 127.601 147.127 127.692 146.751H128.41L129.179 154.203H128.341C127.772 151.958 126.854 150.392 125.59 149.503C124.337 148.614 123.095 148.17 121.864 148.17C120.907 148.17 120.07 148.455 119.352 149.024C118.646 149.583 118.292 150.363 118.292 151.366C118.292 152.266 118.566 153.035 119.113 153.673C119.66 154.322 120.508 155 121.659 155.707L124.735 157.604C126.661 158.788 128.017 159.876 128.803 160.868C129.577 161.87 129.965 163.055 129.965 164.422C129.965 166.257 129.27 167.789 127.88 169.02C126.501 170.25 124.735 170.865 122.582 170.865C121.5 170.865 120.366 170.66 119.181 170.25C118.008 169.84 117.335 169.635 117.165 169.635C116.754 169.635 116.475 169.76 116.327 170.011C116.19 170.261 116.099 170.529 116.054 170.814H115.285L114.242 163.363H115.045Z" fill="#332829"/>
</svg>
