<svg xmlns="http://www.w3.org/2000/svg" viewBox="0 0 233.92 44.64">
  <title>logo</title>
  <g id="Layer_3" data-name="Layer 3">
    <g>
      <path d="M25.49,43.92a2.17,2.17,0,0,0,.91-.17.53.53,0,0,0,.41-.6v-6.5a.54.54,0,0,0-.41-.59,4.69,4.69,0,0,0-.91-.24v-.21H30v.24A2.38,2.38,0,0,0,29,36a.53.53,0,0,0-.41.59v6.55a.54.54,0,0,0,.41.59L30,44v.24H25.49Z" fill="#0A1633"/>
      <path d="M34.55,38.58v3.61c0,.84,0,1.26.29,1.38a2.39,2.39,0,0,0,1,.3v.23H32.75v-.18a6.51,6.51,0,0,0,1-.23c.23-.18.29-.6.29-1.38V38.82a1.15,1.15,0,0,0-.29-.85,2.94,2.94,0,0,0-1.09-.47v-.25h2.29l4,5.1V39.24c0-.73,0-1.27-.3-1.38a2,2,0,0,0-1-.3v-.24h3v.24a1.6,1.6,0,0,0-.9.24c-.24.17-.3.66-.3,1.38v5.16h-.47Z" fill="#0A1633"/>
      <path d="M43.87,44h.72c.14,0,.3-.23.3-.47V38.27c0-.24,0-.41-.3-.47a3,3,0,0,0-.72-.18v-.3h3.36a3.58,3.58,0,0,1,3.84,3.27c0,.09,0,.19,0,.28,0,2.4-2,3.43-4.08,3.43H43.81V44Zm5.75-3.17c0-1.86-1-3.18-2.52-3.18h-.85v5.58c0,.48.3.73,1,.73,1.62,0,2.4-1.32,2.4-3.12Z" fill="#0A1633"/>
      <path d="M54.55,44a2.26,2.26,0,0,0,.85-.17c.23,0,.29-.24.29-.48V38.15c0-.24,0-.41-.29-.47a3.15,3.15,0,0,0-.85-.18v-.25h5.82V39h-.24c0-.47-.67-1.32-1.14-1.32H57.07v2.88h.73a1.14,1.14,0,0,0,.91-.3,1.64,1.64,0,0,0,.29-1h.24V42.1H59a2,2,0,0,0-.29-1c-.18-.18-.3-.3-.91-.3h-.73V43c0,.85.18.91,1.15.91.66,0,1.32,0,1.55-.24a7.74,7.74,0,0,0,.91-1.48h.16l-.18,2.05H54.49V44Z" fill="#0A1633"/>
      <path d="M64.15,44h.73a.58.58,0,0,0,.3-.47V38.27c0-.24,0-.41-.3-.47a4.15,4.15,0,0,0-.85-.18v-.3h3.55c1.48,0,2.4.59,2.4,1.74,0,1.48-1.38,2.16-2.82,2.16H66.5v2.11c0,.24,0,.42.29.48a4.92,4.92,0,0,1,.85.17v.24H64.09V44ZM67,40.81a1.49,1.49,0,0,0,1.56-1.41v-.15c0-.9-.3-1.62-1.38-1.62h-.43v3.18Z" fill="#0A1633"/>
      <path d="M73.34,44a2.17,2.17,0,0,0,.84-.17c.24,0,.3-.24.3-.48V38.15c0-.24,0-.41-.3-.47a3,3,0,0,0-.84-.18v-.25h5.81V39h-.23c0-.47-.67-1.32-1.15-1.32H75.86v2.88h.73a1.11,1.11,0,0,0,.9-.3,1.65,1.65,0,0,0,.3-1H78V42.1h-.18a3.16,3.16,0,0,0-.3-1c-.18-.24-.35-.36-.9-.36h-.73V43c0,.85.18.91,1.14.91.67,0,1.32,0,1.56-.24a7.23,7.23,0,0,0,.9-1.48h.24l-.18,2.05H73.34Z" fill="#0A1633"/>
      <path d="M84.45,38.58v3.61c0,.84,0,1.26.3,1.38a2.3,2.3,0,0,0,1,.3v.23H82.64v-.18a6.51,6.51,0,0,0,1-.23c.23-.18.29-.6.29-1.38V38.82a1.15,1.15,0,0,0-.29-.85,2.94,2.94,0,0,0-1.09-.47v-.25h2.29l4,5.1V39.24c0-.73,0-1.27-.3-1.38a2,2,0,0,0-1-.3v-.24h3.05v.24a1.6,1.6,0,0,0-.9.24c-.18.11-.3.59-.3,1.32v5.16H89Z" fill="#0A1633"/>
      <path d="M93.82,44h.72c.14,0,.3-.23.3-.47V38.27c0-.24,0-.41-.3-.47a3,3,0,0,0-.72-.18v-.3h3.36A3.5,3.5,0,0,1,101,40.46c0,.14,0,.27,0,.41,0,2.4-2,3.43-4.08,3.43H93.76V44Zm5.6-3.19c0-1.85-1-3.17-2.52-3.17h-.84V43.2c0,.47.29.72,1,.72,1.74,0,2.4-1.32,2.4-3.11Z" fill="#0A1633"/>
      <path d="M104.5,44a2.26,2.26,0,0,0,.85-.17c.23,0,.29-.24.29-.48V38.15c0-.24,0-.41-.29-.47a3.15,3.15,0,0,0-.85-.18v-.25h5.82V39h-.24c-.18-.47-.67-1.32-1.14-1.32H107v2.88h.73a1.11,1.11,0,0,0,.9-.3,1.59,1.59,0,0,0,.3-1h.24V42.1H109a1.94,1.94,0,0,0-.3-1c-.17-.18-.29-.3-.9-.3H107V43c0,.85.18.91,1.15.91.66,0,1.32,0,1.55-.24a7.74,7.74,0,0,0,.91-1.48h.24l-.18,2.05h-6.25V44Z" fill="#0A1633"/>
      <path d="M115.54,38.58v3.61c0,.84,0,1.26.3,1.38a2.3,2.3,0,0,0,1,.3v.23h-3v-.18a5.51,5.51,0,0,0,.91-.23c.24-.18.3-.6.3-1.38V38.82a1.16,1.16,0,0,0-.3-.85,2.89,2.89,0,0,0-1.08-.47v-.25h2.28l4,5.1V39.24c0-.73,0-1.27-.29-1.38a2.12,2.12,0,0,0-1-.3v-.24h3.06v.24a1.64,1.64,0,0,0-.91.24c-.29.11-.41.59-.41,1.32v5.16H120Z" fill="#0A1633"/>
      <path d="M125.93,44a2.17,2.17,0,0,0,.84-.17.47.47,0,0,0,.3-.48V37.56h-1.14c-.42,0-1,1.08-1.14,1.48h-.24V37.25h6.36V39h-.23c-.18-.41-.67-1.38-1.15-1.48h-1.14v5.76c0,.23,0,.41.3.47a1.87,1.87,0,0,0,.84.18v.24h-3.72V44Z" fill="#0A1633"/>
      <path d="M134.52,43.38a.93.93,0,0,1,.87-1h.09a1,1,0,1,1,0,2,1.07,1.07,0,0,1-1-1" fill="#0A1633"/>
      <path d="M147.43,42.47a4.81,4.81,0,0,1-.18.73c0,.53,1,.72,1.49.72v.24h-3.59v-.24a1.32,1.32,0,0,0,.84-.23,2,2,0,0,0,.73-1c.67-1.61,2.22-5.52,2.88-7.33h.72c1,2.47,2.65,6.84,3.06,7.75a1.16,1.16,0,0,0,.48.59,3,3,0,0,0,.84.18v.24h-4.45v-.23c.42,0,1.26-.17,1.26-.47a.33.33,0,0,0,0-.24l-.73-2h-3c-.18.6-.42,1.21-.42,1.27Zm3.31-1.79-1.32-3.37c-.42,1.08-.91,2.4-1.32,3.37Z" fill="#0A1633"/>
      <path d="M157.52,44h.79c.24,0,.29-.23.29-.47V38.27c0-.24,0-.41-.29-.47a4.58,4.58,0,0,0-.73-.18v-.3h3.55v.24a1.52,1.52,0,0,0-.73.18.39.39,0,0,0-.42.35V43c0,.85.18.91,1.15.91.59,0,1.26,0,1.38-.24a7.11,7.11,0,0,0,1-1.56h.24l-.18,2H157.6Z" fill="#0A1633"/>
      <path d="M166.83,38.21a.6.6,0,0,0-.42-.47,2.55,2.55,0,0,0-.67-.18v-.3h3.31v.24c-.3,0-.9.18-.9.41v.24c0,.3.84,2.64,1.38,4.45l1.32-3.6a1.51,1.51,0,0,0-.6-1.14,2.24,2.24,0,0,0-.72-.18v-.3h3.36v.24c-.29,0-1,.18-1,.41v.24c0,.3.91,2.64,1.48,4.45.48-1.26,1-2.88,1.27-3.43a2.87,2.87,0,0,0,.23-1c0-.3-.66-.47-1.14-.59V37.5h2.82v.24a1,1,0,0,0-.67.23,2.21,2.21,0,0,0-.59.91c-.3.9-1.49,4.2-2.05,5.76h-.59c-.48-1.56-1.26-4-1.56-5l-1.78,4.87h-.6c-.59-2.17-1.73-5.64-1.91-6.31" fill="#0A1633"/>
      <path d="M179.74,42.84a2,2,0,0,0,0,.6c0,.29.84.47,1.14.59v.24h-2.82V44a1.35,1.35,0,0,0,.67-.18,1.92,1.92,0,0,0,.59-.84c.59-1.33,1.74-4.46,2.29-5.82h.59c.85,2,2.17,5.4,2.4,6.19a1,1,0,0,0,.42.47,2.55,2.55,0,0,0,.67.18v.24h-3.43V44c.3,0,1-.18,1-.42a.31.31,0,0,0,0-.23l-.59-1.56h-2.4a6.84,6.84,0,0,0-.36,1.08Zm2.52-1.38-1.08-2.7c-.3.85-.73,1.86-1,2.7Z" fill="#0A1633"/>
      <path d="M189.16,44H190c.24,0,.3-.23.3-.47V41.82a1.57,1.57,0,0,0-.3-.91,14.88,14.88,0,0,0-1.38-2.46,1.43,1.43,0,0,0-.66-.67,2.66,2.66,0,0,0-.67-.18v-.41h3.61v.24c-.3,0-1.09,0-1.09.29a31.36,31.36,0,0,0,1.56,3.06c.42-.73,1.62-2.7,1.62-2.88s-.6-.42-1.09-.47v-.24h2.65v.24c-.18,0-.48.17-.6.17a3.47,3.47,0,0,0-.67.6c-.29.41-1.08,1.73-1.55,2.46a2.52,2.52,0,0,0-.3,1.26v1.26c0,.24,0,.42.3.48a3.93,3.93,0,0,0,.84.18v.23h-3.66V44Z" fill="#0A1633"/>
      <path d="M198.29,43.79l-.36.54h-.3V41.86h.24c.42,1.09,1.14,2.23,2.29,2.23a1.18,1.18,0,0,0,1.31-1,1.7,1.7,0,0,0,0-.22,1.49,1.49,0,0,0-1.15-1.28L199,41.08a1.84,1.84,0,0,1-1.26-1.86,2.06,2.06,0,0,1,2.13-2h.1a3.12,3.12,0,0,1,1.62.48l.29-.42h.3V39.7H202c-.47-1.27-1.08-2.05-2.17-2.05a1.11,1.11,0,0,0-1.08,1.08,1.31,1.31,0,0,0,1,1.26c.66.3,1,.3,1.38.48a1.82,1.82,0,0,1,1.38,1.85,2.19,2.19,0,0,1-2.18,2.21,1.41,1.41,0,0,1-.29,0,3.64,3.64,0,0,1-1.67-.67" fill="#0A1633"/>
      <path d="M206.51,43.38a1,1,0,0,1,.93-1h0a.93.93,0,0,1,1,.87v.1a1,1,0,0,1-.94,1h0a.91.91,0,0,1-1-.87.14.14,0,0,1,0-.09" fill="#0A1633"/>
    </g>
    <g>
      <path d="M98.4,19a3,3,0,0,0,.79-1.3,1.48,1.48,0,0,0-.17-.42.62.62,0,0,1,0,.42,3.74,3.74,0,0,1-.71,1.2H95.94A12.63,12.63,0,0,0,98.4,19Z" fill="#0A1633"/>
      <path d="M89.68,20.54c0,.1-.14.31-.6.31-.13,0-.13,0-.13-.15V19.51c0-.13,0-.14.13-.14a.6.6,0,0,1,.48.13A1.05,1.05,0,0,1,89.68,20.54Zm-.52-1.25h-1c.16,0,.26.08.26.21v1.13c0,.12-.1.2-.26.2h1.08a1.25,1.25,0,0,0,.68-.19.75.75,0,0,0,.31-1,1.11,1.11,0,0,0-1.06-.47Z" fill="#0A1633"/>
      <path d="M90.52,19.53c.21,0,.31.13.3.25v1.1c0,.12-.11.18-.31.15h0l1.12.19h0c-.2,0-.31-.13-.29-.25v-1.1c0-.12.1-.18.31-.15h0l-1.13-.24h0Z" fill="#0A1633"/>
      <path d="M102.93,19.75h0a.29.29,0,0,1,.16-.25.72.72,0,0,1,.46,0v1.28c0,.11-.1.17-.27.14h0l1,.2h0a.25.25,0,0,1-.27-.24V19.59a.79.79,0,0,1,.46.19.5.5,0,0,1,.18.31h0v-.46l-1.75-.34Z" fill="#0A1633"/>
      <path d="M95.67,20.54a.27.27,0,0,1,.27.25v.88c0,.47-.54.38-.76.29a.48.48,0,0,1-.3-.49V20.6c0-.12.11-.2.27-.17h0l-1.07-.17h0a.25.25,0,0,1,.27.25v1c0,.18.22.49.79.63s.92,0,.92-.4v-.92c0-.12.09-.2.26-.17h0l-.65-.12h0Z" fill="#0A1633"/>
      <path d="M92.84,21.44c-.17,0-.18,0-.18-.19v-.47c.35.07.41.11.5.43h0v-.76h0c-.12.27-.16.3-.53.25v-.52c0-.12,0-.13.13-.12H93a.56.56,0,0,1,.53.49h0v-.47L92,19.81h0a.24.24,0,0,1,.26.24v1.07c0,.12-.11.17-.27.15h0l1.78.29.15-.44h-.09a.78.78,0,0,1-.92.25Z" fill="#0A1633"/>
      <path d="M101.62,20.69c-.16,0-.18,0-.18-.18V20c.36,0,.42.09.51.38h0v-.75h0c-.12.28-.17.31-.54.29V19.4c0-.12,0-.14.14-.12h.26a.48.48,0,0,1,.54.43h0v-.42l-1.77-.13h0c.17,0,.25.09.25.21v1.06c0,.12-.1.2-.26.18h0l1.78.14.16-.46h0a.84.84,0,0,1-.92.32Z" fill="#0A1633"/>
      <path d="M134.12,19.4v1c0,.1-.07.18-.24.18h.58c-.15,0-.24,0-.24-.18V19.5l1.29,1.14h.09V19.4c0-.11.09-.18.24-.18h-.58c.15,0,.24,0,.24.18v.69l-1-.92h-.61a.13.13,0,0,1,.15.08l.1.09Z" fill="#0A1633"/>
      <path d="M132.34,19.62a.5.5,0,0,1,.27-.3H133a.42.42,0,0,1,.27.25,1,1,0,0,1,0,.42,1,1,0,0,1,0,.43.53.53,0,0,1-.27.3h-.35a.41.41,0,0,1-.27-.26.94.94,0,0,1,0-.41A1,1,0,0,1,132.34,19.62Zm-.15,1.08a1.2,1.2,0,0,0,.59.09,1.56,1.56,0,0,0,.6-.19.81.81,0,0,0,.41-.69.64.64,0,0,0-.41-.6,1.22,1.22,0,0,0-.6-.09,1.37,1.37,0,0,0-.59.19.82.82,0,0,0-.42.68.66.66,0,0,0,.42.63Z" fill="#0A1633"/>
      <path d="M129.43,20.08v1c0,.12-.07.21-.24.22h0l.58-.1h0c-.15,0-.24,0-.24-.15V20l.73,1.18h0l.74-1.49v1.09c0,.11-.09.2-.23.23h0l.95-.18h0c-.15,0-.24,0-.24-.14v-1a.23.23,0,0,1,.24-.22h0l-.73.13-.58,1.13-.56-.92-.75.13h0c.2,0,.27,0,.27.15Z" fill="#0A1633"/>
      <path d="M150.58,20.46c-.2,0-.29-.07-.29-.19V19.2c0-.12.09-.19.29-.19h-1.06c.2,0,.28.07.28.19v1.07c0,.12-.08.19-.28.19h1.06Z" fill="#0A1633"/>
      <path d="M146.23,19.29a.39.39,0,0,1,.41.09.45.45,0,0,1,0,.36c-.07.2-.38.22-.53.23V19.4S146.11,19.31,146.23,19.29Zm-.61.24v1c0,.12-.07.21-.24.22h0l1-.13h0c-.17,0-.26,0-.27-.17V20h.07l.73.76.61-.08h-.16l-.63-.55a.79.79,0,0,0,.42-.25.29.29,0,0,0-.09-.39h0a1.26,1.26,0,0,0-.72,0l-1,.12h0c.17,0,.26,0,.27.16Z" fill="#0A1633"/>
      <path d="M148,19.44a.59.59,0,0,1,.26-.3h.34a.4.4,0,0,1,.25.26.94.94,0,0,1,0,.41,1,1,0,0,1,0,.43.5.5,0,0,1-.25.3h-.34a.43.43,0,0,1-.26-.25,1.48,1.48,0,0,1,0-.42A1.55,1.55,0,0,1,148,19.44Zm-.14,1.08a1.07,1.07,0,0,0,.56.09,1.38,1.38,0,0,0,.56-.19.78.78,0,0,0,.4-.68.67.67,0,0,0-.4-.63,1.32,1.32,0,0,0-.56-.09,1.4,1.4,0,0,0-.56.2.79.79,0,0,0-.4.69A.63.63,0,0,0,147.85,20.52Z" fill="#0A1633"/>
      <path d="M151,19.17a.64.64,0,0,1,.43,0V20.4c0,.12-.09.18-.24.17h0l.95.12h0a.23.23,0,0,1-.23-.23V19.23a.65.65,0,0,1,.43.17.43.43,0,0,1,.16.29h0v-.46L150.75,19v.46h0a.32.32,0,0,1,.17-.26Z" fill="#0A1633"/>
      <path d="M133.48,15.36a11.39,11.39,0,0,0-.9,2.06.2.2,0,1,0,.38.14h0a11.7,11.7,0,0,1,.88-2,.2.2,0,0,0-.28-.28Z" fill="#0A1633"/>
      <path d="M134.22,15a4.77,4.77,0,0,1,1.65-1.6.22.22,0,0,0,.11-.28h0a.2.2,0,0,0-.26-.1,5.17,5.17,0,0,0-1.84,1.82.2.2,0,1,0,.35.2h0Z" fill="#0A1633"/>
      <path d="M136.52,13a12.3,12.3,0,0,1,2.18-.11.21.21,0,0,0,.21-.21.21.21,0,0,0-.21-.21,13.34,13.34,0,0,0-2.18.12.21.21,0,0,0-.18.23h0a.19.19,0,0,0,.22.17Z" fill="#0A1633"/>
      <path d="M133.75,16.62a.21.21,0,0,0,.27-.12,10.87,10.87,0,0,1,1-1.66h0a.21.21,0,0,0,0-.29h0a.21.21,0,0,0-.28,0h0a11.11,11.11,0,0,0-1.2,1.78.21.21,0,0,0,.11.27Z" fill="#0A1633"/>
      <path d="M137.35,13a3.27,3.27,0,0,0-1.84.7l-.11.09a.2.2,0,0,0,0,.29h0a.19.19,0,0,0,.28,0l.12-.09a2.88,2.88,0,0,1,1.64-.62.21.21,0,0,0,.21-.21.21.21,0,0,0-.21-.21Z" fill="#0A1633"/>
      <path d="M136.52,14a.22.22,0,0,0,.26.15,8.25,8.25,0,0,1,2-.18.2.2,0,0,0,.21-.2.21.21,0,0,0-.21-.21,8.49,8.49,0,0,0-2.13.19.21.21,0,0,0-.15.25Z" fill="#0A1633"/>
      <path d="M135.2,15.61a5.75,5.75,0,0,1,1-1.13.21.21,0,0,0,0-.29h0a.19.19,0,0,0-.28,0,5.37,5.37,0,0,0-1.08,1.29.2.2,0,0,0,.08.28h0a.21.21,0,0,0,.28-.09h0Z" fill="#0A1633"/>
      <path d="M133.84,18.12a.21.21,0,0,0,.25-.13,6.27,6.27,0,0,1,.53-1.28,3,3,0,0,0,.2-.4.22.22,0,0,0-.12-.27.21.21,0,0,0-.27.12,3,3,0,0,1-.18.36,7.25,7.25,0,0,0-.56,1.35.2.2,0,0,0,.13.26h0Z" fill="#0A1633"/>
      <path d="M119.77,13.06l-.48.22c-.38.18-.2.39,0,.3l.49-.22c.18-.09.29-.17.33-.11.3.25.18.39-.09.42s-.18.34-.22.55-.21.25-.43.37-.18.28,0,.19l.37-.18c.33-.16.27-.27.33-.41a.37.37,0,0,1,.37-.23c.15.39.41.3.58.32s.2.2.2.34.09.34.2.25,0-.48,0-.64-.18-.1-.36-.21-.25-.23-.21-.34.26-.21.26-.35v-.78c0-.16.19-.16.19,0v.78s-.21-.17-.08.11.26.45.27.21l.08-1.16a.32.32,0,0,0-.63-.08v.78c-.07.45-.38.09-.31-.34l.21-1c.12-.34-.36-.24-.52-.24s-.18.42-.13.6-.27.32-.39.22l-.42-.34c-.25-.19-.38,0-.17.13l.54.48c.18.12.21.21,0,.31Z" fill="#0A1633"/>
      <path d="M112.62,13.21l.4.2c.29.15.32.27.09.35l-.4.11c-.2,0-.14.24,0,.18l.87-.22a2,2,0,0,1,.68-.15h1.1a.61.61,0,0,1-.29.19h-.42c-.18,0-.18.18,0,.18h.56a.54.54,0,0,0,.37-.13l.46-.24.36.12a.23.23,0,0,1,.16.21c0,.13.27.13.24,0s0-.31-.19-.34l-.24-.15c-.09,0-.09,0,0-.15.18-.33-.12-.47-.34-.47h-1.2c-.17,0-.18.2,0,.2H116c.23,0,.23.26,0,.26h-2.08c-.24,0,0-.39.09-.51s-.31-.21-.48-.21-.21.29-.12.48,0,.25-.19.18l-.46-.29c-.19-.1-.27.11-.09.18Z" fill="#0A1633"/>
      <path d="M112.62,14.77l.4.2c.29.15.32.27.09.34l-.4.12c-.2,0-.14.24,0,.18l.87-.22a2,2,0,0,1,.68-.15h1.1a.75.75,0,0,1-.29.21h-.42c-.18,0-.18.18,0,.18h.56a.55.55,0,0,0,.37-.14l.46-.23.36.11a.24.24,0,0,1,.16.21c0,.14.27.14.24,0s0-.31-.19-.34l-.24-.15c-.09,0-.09-.07,0-.15.18-.32-.12-.47-.34-.47h-1.2c-.17,0-.18.21,0,.21H116c.23,0,.23.25,0,.25h-2.08c-.24,0,0-.39.09-.51s-.31-.2-.48-.2-.21.28-.12.47,0,.25-.19.18l-.46-.3c-.19-.09-.27.11-.09.18Z" fill="#0A1633"/>
      <path d="M118.09,16.84l.42.21c.3.15.32.27.09.34l-.4.12c-.2,0-.14.24,0,.18l.87-.22a2,2,0,0,1,.68-.15h1.1a.86.86,0,0,1-.29.21h-.36c-.18,0-.18.17,0,.17h.56a.54.54,0,0,0,.37-.13l.46-.24.36.12a.23.23,0,0,1,.15.21c0,.13.27.13.24,0s0-.31-.2-.34l-.23-.15c-.09,0-.09,0,0-.15.17-.33-.12-.47-.34-.47h-1.21c-.16,0-.17.2,0,.2h1.19c.24,0,.24.26,0,.26h-2.14c-.23,0,0-.37.09-.51s-.31-.21-.47-.21-.21.29-.14.48,0,.25-.19.18l-.52-.26c-.19-.08-.27.11-.09.18Z" fill="#0A1633"/>
      <path d="M118.09,18.46l.42.21c.3.15.32.27.09.34l-.4.12c-.2,0-.14.24,0,.18l.87-.23a1.8,1.8,0,0,1,.68-.14h1.1a.7.7,0,0,1-.29.19h-.36c-.18,0-.18.18,0,.18h.56a.55.55,0,0,0,.37-.14l.46-.23.36.11a.25.25,0,0,1,.15.21c0,.14.27.14.24,0s0-.31-.2-.34l-.23-.15c-.09,0-.09-.07,0-.15.17-.32-.12-.47-.34-.47h-1.21a.11.11,0,1,0,0,.21h1.19c.24,0,.24.25,0,.25h-2.14c-.23,0,0-.39.09-.51s-.31-.2-.47-.2-.21.28-.14.47,0,.25-.19.18l-.52-.25c-.19-.09-.27.1-.09.18Z" fill="#0A1633"/>
      <path d="M121.12,19.8h-.83c-.16,0-.18.2,0,.2h.82c.23,0,.23.26,0,.26h-1.7c-.23,0,0-.39.09-.51s-.31-.21-.47-.21-.21.29-.12.48,0,.25-.19.18l-.52-.26c-.2-.08-.27.11-.09.18l.41.21c.3.15.31.18.09.4l-.41.46c-.23.21-.18.31,0,.25l.92-.69a1,1,0,0,1,.59-.12l-.09.22-.3.22s-.13.14-.1.18a.13.13,0,0,0,.18,0l.34-.27.42-.41h.41v.09l-.24.17a.15.15,0,0,0,0,.18h.18l.34-.26a.11.11,0,0,0,0-.11h.2c.5,0,.77-.8,0-.8Z" fill="#0A1633"/>
      <path d="M113.52,18.13,116.39,21l-1.81-.83a2.48,2.48,0,0,1-1.07-2v-.09Zm.34-.41H114l2.49,2.49v.57l-2.85-3a.39.39,0,0,1,.25-.17Zm.54-.51,2,2.08v.55l-2.33-2.36A.9.9,0,0,1,114.4,17.21Zm.74-.11,1.32,1.32v.5l-1.78-1.77h.47Zm1.32-.38v1.34l-1-1A4.67,4.67,0,0,0,116.46,16.72Zm-2.61,3.34,2.8,1.29V16.61h-2.12c-.21,0-.38,0-.46.25a1.1,1.1,0,0,1-.49.59.59.59,0,0,1,0-.37.3.3,0,0,0-.17-.38.22.22,0,0,0-.14,0,.26.26,0,0,0-.28.13c-.09.14-.24.4,0,.52s0,.49-.09.66c-.31.44.25,1.69.95,2Z" fill="#0A1633"/>
      <g>
        <path d="M121.06,6.75a.36.36,0,0,0,.37-.37.37.37,0,0,0-.37-.37.38.38,0,0,0-.37.37A.37.37,0,0,0,121.06,6.75Z" fill="#0A1633"/>
        <path d="M114.35,6.2l.29.11-.09.1a17.33,17.33,0,0,1,2.87-.28,12.66,12.66,0,0,1,2.88.33l-.1-.17.28-.1a.54.54,0,0,0,.18-.11.38.38,0,0,0,0-.54h0a.36.36,0,0,0-.52,0h0a.6.6,0,0,0,0,.19V6a2.32,2.32,0,0,0-.58-.08l.23-.21a.62.62,0,0,0,.14-.18.43.43,0,0,0-.25-.55.42.42,0,0,0-.53.26v0a.89.89,0,0,0,0,.23V5.8l-.41-.21.22-.26a1,1,0,0,0,.12-.23.47.47,0,0,0-.39-.54.46.46,0,0,0-.52.39V5a1,1,0,0,0,0,.24l.14.31h-.54a.68.68,0,0,0,.3-.56.64.64,0,0,0-1.25-.28.66.66,0,0,0,0,.28.68.68,0,0,0,.3.56h-.55l.13-.33a.88.88,0,0,0,0-.23.45.45,0,0,0-.5-.42h0a.48.48,0,0,0-.38.55.94.94,0,0,0,.12.22l.22.27-.52.15v-.3a.81.81,0,0,0,0-.22.42.42,0,0,0-.51-.29h0a.43.43,0,0,0-.26.55s.14.16.14.17l.25.21a2.86,2.86,0,0,0-.42.24V5.8a.61.61,0,0,0,0-.19.37.37,0,0,0-.52,0h0a.38.38,0,0,0,0,.54h0a.52.52,0,0,0,.18.1Z" fill="#0A1633"/>
        <path d="M113.76,6.75a.37.37,0,0,0,.37-.37.38.38,0,0,0-.37-.37.37.37,0,0,0-.37.37A.36.36,0,0,0,113.76,6.75Z" fill="#0A1633"/>
        <path d="M117.41,3.89a.86.86,0,0,1,.71.46V3.47h-.43l.09-.4H117l.09.4h-.43v.88a.86.86,0,0,1,.71-.46Z" fill="#0A1633"/>
        <path d="M95.23,6.56a.31.31,0,0,0,.32-.3.3.3,0,0,0-.3-.32.3.3,0,0,0-.32.29v0A.32.32,0,0,0,95.23,6.56Z" fill="#0A1633"/>
        <path d="M89.68,6.11l.23.09v.09a16,16,0,0,1,2.39-.24,11.24,11.24,0,0,1,2.39.29l-.1-.14.23-.09A.38.38,0,0,0,95,6a.32.32,0,0,0,0-.46.31.31,0,0,0-.44,0h0a.49.49,0,0,0,0,.17V6a1.63,1.63,0,0,0-.34-.19l.2-.18a.44.44,0,0,0,.12-.15.36.36,0,0,0-.2-.46h0a.35.35,0,0,0-.44.21v0a.54.54,0,0,0,0,.18v.25l-.43-.12.06-.18a.54.54,0,0,0,0-.18A.38.38,0,0,0,92.75,5a.3.3,0,0,0,0,.1.6.6,0,0,0,0,.19l.11.27h-.45a.57.57,0,0,0,.24-.46.54.54,0,0,0-.4-.65.53.53,0,0,0-.64.4.53.53,0,0,0,0,.25.57.57,0,0,0,.24.46h-.46l.1-.27a.6.6,0,0,0,0-.19.38.38,0,0,0-.42-.35h0a.39.39,0,0,0-.31.45h0a.51.51,0,0,0,.09.18l.18.22-.43.12V5.28A.34.34,0,0,0,90.15,5h0a.35.35,0,0,0-.21.45h0a.53.53,0,0,0,.12.14l.21.18A1.86,1.86,0,0,0,89.9,6V5.77a.43.43,0,0,0,0-.16.31.31,0,0,0-.44,0h0a.34.34,0,0,0,0,.46.42.42,0,0,0,.14.09Z" fill="#0A1633"/>
        <path d="M89.17,6.56a.31.31,0,1,0-.31-.31h0A.31.31,0,0,0,89.17,6.56Z" fill="#0A1633"/>
        <path d="M92.21,4.2a.72.72,0,0,1,.6.37V3.86h-.36l.07-.33h-.63l.07.33H91.6v.73a.75.75,0,0,1,.6-.38Z" fill="#0A1633"/>
        <path d="M120.2,11.4l.1-.11H122a.18.18,0,0,0,.12.12v1.66l-.1.11.1.1v1.66a.2.2,0,0,0-.12.12h-1.68l-.13-.12-.1.11h-1.64a.18.18,0,0,0-.12-.12V13.28l.11-.1-.11-.11V11.43a.24.24,0,0,0,.12-.14h1.65l.1.11Zm-2,0v1.67l-.1.11.1.1v1.66a.23.23,0,0,0-.15.21.24.24,0,0,0,.24.24h0a.23.23,0,0,0,.19-.15h1.65l.11.1.1-.1H122a.22.22,0,0,0,.19.15.24.24,0,0,0,.24-.24h0a.24.24,0,0,0-.15-.21V13.28l.1-.1-.1-.11V11.41a.23.23,0,0,0,.15-.21.23.23,0,0,0-.24-.23h0a.2.2,0,0,0-.19.14h-1.67l-.13-.1-.1.1h-1.64a.23.23,0,0,0-.19-.13.24.24,0,0,0-.24.24h0a.23.23,0,0,0,.15.21Z" fill="#0A1633"/>
        <path d="M112.62,11.63l.4.21c.29.15.32.27.09.34l-.4.12c-.2,0-.14.24,0,.18l.87-.22a2,2,0,0,1,.68-.15h1.1a.75.75,0,0,1-.29.21h-.42c-.18,0-.18.17,0,.17h.56a.5.5,0,0,0,.37-.13l.46-.24.36.12a.21.21,0,0,1,.16.21c0,.13.27.13.24,0s0-.31-.19-.34l-.24-.15c-.09,0-.09-.07,0-.15.18-.32-.12-.47-.34-.47h-1.2c-.17,0-.18.21,0,.21H116c.23,0,.23.25,0,.25h-2.08c-.24,0,0-.37.09-.51s-.31-.2-.48-.2-.21.28-.12.47,0,.25-.19.18l-.46-.28c-.19-.11-.27.1-.09.17Z" fill="#0A1633"/>
        <path d="M32.94,23V22H30.52V12H42.29c0,2.38,0,7.93-.09,9.94H39.76v1h8.9V22H46.43V1.68H48.7V.53H44.25c-2.34,0-3.66,0-4.45-.08v1h2.45c.09,2,.09,7,.09,9.38H30.45V1.48h2.49V.53H24v1h2.23c.08,2.14.08,3.31.08,14.09,0,4.08,0,4.45-.08,6.18H24v1h4.45c2.32,0,3.67,0,4.45.1Z" fill="#0A1633"/>
        <path d="M1.78,5.94A28.88,28.88,0,0,1,2.17,2c.16-.33.8-.51,3.41-.51H8.64c.09,2.27.09,3.45.09,14.28,0,4.08,0,4.45-.09,6.19H6.22v1h9.44V22H13.24V1.48h3.08c2.64,0,3.25.26,3.42.55a30,30,0,0,1,.34,3.91h1.48l.3-5.42H10.77C7,.58,3.58.55,0,.52L.28,5.94Z" fill="#0A1633"/>
        <path d="M200,23.46A20.35,20.35,0,0,0,210.87,20V15.2c0-.61.13-.76,1.87-.87v-1c-1.84,0-3.52.13-6.38.13h-3v1l3.24.14v5.71a7.09,7.09,0,0,1-5.39,2.08c-6.44,0-8.91-6.16-8.91-10.86,0-5.94,3.66-10.39,8.91-10.39a8.3,8.3,0,0,1,8.09,6.26h1.12c0-.76-.17-3.95-.17-4.59v-2h-1c-.11.25-.27.86-.66.86A25.47,25.47,0,0,0,200.21,0c-7.42,0-12.4,5.08-12.4,11.77,0,7.64,6.2,11.69,12.14,11.69Z" fill="#0A1633"/>
        <path d="M70.32,22.91l.45-5.8H69.36L67.88,22H60.31c-2.87,0-3.06-.19-3.16-1.48s0-7.42,0-9h.64a26.12,26.12,0,0,1,4.91.35c.41.33.41.86.59,3h1.48c0-1.71-.11-3-.11-4.45,0-1.06,0-2.08.07-3.07H63.25c-.12,2-.36,2.86-.81,3.1a24.89,24.89,0,0,1-4.8.25H57V1.48h6.23a13.61,13.61,0,0,1,3.92.39c.77.42.83,1.14,1,3.5h1.49V.53L57.31.62c-3.5,0-5.25,0-7.08-.09v1l2.61.09c.09,2.11.09,3.28.09,14.06,0,4.08,0,4.45-.09,6.18H50.23v1H60Z" fill="#0A1633"/>
        <g>
          <path d="M233.47,22.91l.45-5.8h-1.41L231,22H223.5c-2.87,0-3.06-.19-3.16-1.48s0-7.42,0-9H221a25.15,25.15,0,0,1,5,.28c.41.32.41.86.59,3H228c0-1.71-.12-3-.12-4.46,0-1.05,0-2.07.08-3.07H226.5c-.12,2-.38,2.87-.81,3.1a24.12,24.12,0,0,1-4.8.26h-.64V1.48h6.23a13.61,13.61,0,0,1,3.92.39c.75.42.83,1.14,1,3.5h1.48V.53L220.41.62c-3.5,0-5.25,0-7.08-.09v1l2.61.09c.09,2.11.09,3.28.09,14.06,0,4.08,0,4.45-.09,6.18h-2.61v1h9.78Z" fill="#0A1633"/>
          <path d="M171,13.7l3.72-9.13c.1-.19.13-.36.21-.36s.18.17.21.29h0l3.44,9.14a1.23,1.23,0,0,1,.13.41c0,.09-.18.2-.41.23h-6.84c-.48,0-.61-.09-.61-.2a2.23,2.23,0,0,1,.13-.44ZM170.8,23V22c-2.55,0-2.79-.16-2.79-.5a5,5,0,0,1,.31-.95l1.87-4.69c.21-.48.32-.58.75-.58h7.74c.61,0,.69,0,.89.48l2.05,5.06a2.25,2.25,0,0,1,.24.8c0,.16-.24.31-3.07.38v1c2.65,0,3.81-.09,5.07-.09,1.84,0,3.89,0,5.39.09V21.9c-1.32,0-2-.16-2.29-.69a29.83,29.83,0,0,1-1.39-2.84L177.63,0h-2l-4.75,11.57c-.65,1.59-3.78,8.75-4.2,9.47s-.86.77-2.74.92v1c.68,0,2.59-.09,3.8-.09s2.1,0,3.07.09Z" fill="#0A1633"/>
        </g>
        <path d="M76.76,20.06h8.37v2H77.27l2.28-.91-2.77-1.13Zm4.69-.89c0-.21.2-.31.48-.37a5.37,5.37,0,0,0,1.41-.44h.1a1.35,1.35,0,0,1,.6-.29c.34,0,2-.08,2.12-.08a2,2,0,0,0,1.7-.88h0v.83a1,1,0,0,1,.72-.67,10.41,10.41,0,0,0,.16,1.12.93.93,0,0,1,.71-.61,10.09,10.09,0,0,0,0,1.1,12.07,12.07,0,0,0-5,.1.42.42,0,0,0-.16-.19,1,1,0,0,0-.33,1,1.61,1.61,0,0,1-.31,0c-.58-.18-.25-.73-.15-.84-.28,0-.5.26-.53.7v.17h-.21c-.58-.18-.25-.73-.15-.84-.28,0-.5.26-.53.7,0,.11,0,.15-.11.16h-.38c-.33-.16-.27-.48-.23-.69Zm5.78-6.08c0-.79.93-1.84,1.87-2.51.23-.18,0,.91-.61,1.48s-.77,1-1.26,1Zm.9-3.47c.24-.17.33-.66.33-.43s.37.53.34.71-.67,1.21-1.13.87A1.64,1.64,0,0,1,88.13,9.62Zm3,1.29a.28.28,0,0,1-.3.26.27.27,0,0,1-.26-.29.28.28,0,0,1,.28-.27A.3.3,0,0,1,91.1,10.91Zm2.4,0a.28.28,0,0,1,.3-.27.29.29,0,0,1,.27.3.28.28,0,0,1-.28.26A.29.29,0,0,1,93.5,10.91ZM89.94,8.09l.3.28c0,.16.36.36.37.36h0a.74.74,0,0,1,.4-.48,4.67,4.67,0,0,1,.91-.15H93a4.07,4.07,0,0,1,.58.14.45.45,0,0,1,.29.47h0a.45.45,0,0,0,.24-.25c1-1,1.49-1,1.49,0s-.6.53-.73.13v2.47a1.11,1.11,0,0,1-1,1.18h-.09a1.48,1.48,0,0,1,.85.34c0,.12.07.35-.09.37h-.8a1.73,1.73,0,0,0,.55.2.73.73,0,0,1,.25.15.65.65,0,0,1-.11.38,5.2,5.2,0,0,0-.62-.32,1.67,1.67,0,0,1,.61.51c.12.17.18.39-.09.39a1,1,0,0,1-.36-.21c-.46-.38-1.21-.31-1.48-.44s0-.46.28-.46c.65,0,.7-.64.71-.89,0,0-.16-.88.49-.82s.69-.53.7-1.2a6.17,6.17,0,0,1-.86,0c-.74,0-.88-.43-.86-.86s-.12,3.13-.12,3.13a.86.86,0,0,1-.5.15c-.32,0-.61,0-.51-.15l-.12-3.13c0,.43-.12.87-.86.86a6.17,6.17,0,0,1-.86,0c0,.67,0,1.26.7,1.2s.49.82.49.82c0,.25,0,.89.71.89.22,0,.42.37.28.46s-1,0-1.48.44a.88.88,0,0,1-.36.21c-.26,0-.2-.22-.09-.39a1.67,1.67,0,0,1,.7-.51,5.82,5.82,0,0,0-.84.25.77.77,0,0,1-.11-.39,1.28,1.28,0,0,1,.25-.15,1.71,1.71,0,0,0,.55-.19H90c-.17,0-.14-.25-.09-.37a1.31,1.31,0,0,1,.84-.34,1.12,1.12,0,0,1-1.13-1.1.28.28,0,0,1,0-.09V8.52c-.12.4-.7,1-.73-.14,0-.84.38-1,1.1-.38Zm6.1.47c1.2.33,1.29.83,1.23,1.34a11.08,11.08,0,0,0-1.48-.58A1.48,1.48,0,0,0,96,8.56Zm1.75,3.19c-.43-.32-.92-.66-1.05-.78-.46-.48-1.13-.46-1.11-1.25a5.33,5.33,0,0,0,1.14.52c.53.18.84.59,1,1.48Zm-.53,1.35A9.36,9.36,0,0,0,96.06,12c-.29-.23-.55-.31-.57-1.48.08.24.49.55,1.34,1.17a2.32,2.32,0,0,1,1.11,2c-.41,0-.4-.29-.67-.63Zm-1,3.77c.14,0,0,0-.19.11-.38.17-.86-.21-1.14-.24s-.67-.64-.57-1.48c.23-.15.33.81,1.9,1.6Zm-1-4.64A16.6,16.6,0,0,1,97,13.71c.57.64.47.83.44,1.17l-.87-.44A3,3,0,0,1,95.24,13a1.83,1.83,0,0,1,0-.66Zm.58,2.61a12.65,12.65,0,0,1,1.21.79c.31.25.08.77.1.83s-.09.13-.15,0a3.85,3.85,0,0,0-.92-.58,1.7,1.7,0,0,1-.92-1.75h0s.1-.34,0-.09h0c.1,0,.39.49.7.68Zm-4.45,1.32H92a1.92,1.92,0,0,1-.11.67l-.47.1a3,3,0,0,0,0-.73Zm1.49.55a1.63,1.63,0,0,1-.54,0V16.1h.39l.09.61ZM94,16l.16.56a1.06,1.06,0,0,0-.61,0,1.06,1.06,0,0,1,0-.5H94Zm-1.56-.8c-.67,0-1.25.29-1.25-.2s.57-.87,1.25-.87,1.29.38,1.29.87S93.1,15.2,92.42,15.2Zm-1.88.74a.73.73,0,0,1,.34,1s0,0,0,0a.83.83,0,0,1-.81,0,2.46,2.46,0,0,0,.49-.95Zm-2.78-1.1c-.34-.43.21-1.48.56-1.89a5.55,5.55,0,0,0,.91-1.08,1.94,1.94,0,0,1-.56,1.84,5.6,5.6,0,0,1-.91,1.19Zm1-.65c.24-.29.83-1.07.83-1.07v.09c0,.1.43.62-.4,1.48a3,3,0,0,0-.53.91c-.11.16-.21.19-.27-.2-.1-.65,0-.75.37-1.26Zm.58,3a1.48,1.48,0,0,1,0-1.88,3.91,3.91,0,0,0,.64-.76,2.14,2.14,0,0,1-.54,2.41c-.18.13-.16.2-.13.25Zm9.14-1.91a4.15,4.15,0,0,1,0-1.57A11.42,11.42,0,0,0,104.22,15h.29v.14h0a1.64,1.64,0,0,0,1.12.68h.09a1.51,1.51,0,0,0,.89-.3,3.66,3.66,0,0,0,.13,1.09,9.38,9.38,0,0,0-1.29-.12h0a10.29,10.29,0,0,1,1.34.19l.08.19h0a3.5,3.5,0,0,0,.24.42l-.15.07a13.91,13.91,0,0,0-3.08-.47h0a13.82,13.82,0,0,1,3.05.65,2.75,2.75,0,0,0-.26.22,1.49,1.49,0,0,0-.23.27,14.33,14.33,0,0,0-3.56-.65h0a14.67,14.67,0,0,1,3.47.78,2.47,2.47,0,0,0-.19.54,16.84,16.84,0,0,0-4.45-.79h0a16.6,16.6,0,0,1,4.45,1,3.53,3.53,0,0,0,0,.46,21.5,21.5,0,0,0-5.8-.82c.52-1.48,0-2-.37-2.4L99,16a1.76,1.76,0,0,1,.76,2.36,1.67,1.67,0,0,1-.18.28h0a2.5,2.5,0,0,0-.76.24h-.09v.64a15,15,0,0,1-2.68,0c-1.15-.12-.7-.48-1.35-.77s-.45.55-1.19.59h0L93,19.2c-.32-.26-.16-.9,0-1.05-.86,0-.65,1-.81.71a.64.64,0,0,1,0-.92l0,0c-.91.25-.58,1-.79.87a.6.6,0,0,1-.33-.79.86.86,0,0,1,.15-.22c-.37,0-.65.46-.74.88a.79.79,0,0,1-.09-1.11.78.78,0,0,1,.7-.27A3.55,3.55,0,0,0,93,17.11a7,7,0,0,1,3.76.19c1,0,.86,0,1-.32a2.7,2.7,0,0,0,.22-.91l.4.24V14.93l.42.16Zm6.9-1.78a1.48,1.48,0,0,1,1.48-.45,1.33,1.33,0,0,1,1,1.41c0,.66-.2,2.56,1,3.06-.77.16-1-.4-1.26-.83-.52-1,.38-3.06-1.35-3.12a.89.89,0,0,0-.72.61.65.65,0,0,0,.2.57.57.57,0,0,0,.56.1h0c-.19,0-.43,0-.53-.27a.3.3,0,0,1,0-.34c0-.16.2-.21.35-.22a.67.67,0,0,1,.63.4.86.86,0,0,1,0,.59.93.93,0,0,1-.79.4,1.07,1.07,0,0,1-.76-.44A1.38,1.38,0,0,1,105.36,13.46Zm-.12-1.71a3,3,0,0,0-2,.39,7.7,7.7,0,0,1-1.39.58h0a1.89,1.89,0,0,1-2.09-.85,2,2,0,0,1-.09-2.24h0a2.51,2.51,0,0,1,3.16-.55,6.6,6.6,0,0,0,1,.28,2.05,2.05,0,0,0,1.49-.07,1.24,1.24,0,0,0,.44-1,.81.81,0,0,1,.21.41c0,.85-.25,1.62-2.18,1.26-1.49-.26-2.57-1.2-3.64.09a1.49,1.49,0,0,0,.47,2.05,1.51,1.51,0,0,0,1,.21c1.48-.43,2-1.2,3.57-1a3.24,3.24,0,0,1,1,.38l-.4.42a2.12,2.12,0,0,0-.7-.27Zm-1.66-.65c0,.18-.27.22-.43.3-.71.35-1.48.89-2.4.46-.23-.12-.2-.37-.26-.57a.7.7,0,0,1,.42-.52,5.49,5.49,0,0,1,2.63.33Zm2.72-1.57a1,1,0,0,1-.38.75,2.68,2.68,0,0,1-2,.21,10.74,10.74,0,0,1-1.12-.27c-1-.26-1.75-.49-2.5.3V10c.72-.87,1.48-.61,2.38-.31a10,10,0,0,0,1.07.3,2.33,2.33,0,0,0,2-.24,1.2,1.2,0,0,0,.42-.85.81.81,0,0,1,.19.63Zm1.36,1.73c1-.28,1.69,0,1.81.39A7.1,7.1,0,0,0,108.7,15v.88a8.14,8.14,0,0,0,.13,1.48h0c-1-.41-.92-1.88-.9-2.68v-.27A1.49,1.49,0,0,0,106.8,13a1.54,1.54,0,0,0-1.22.18,10.15,10.15,0,0,1,2.1-1.82Zm1.56-1.48,1.63-1.86a1.13,1.13,0,0,0-.21.35,1.06,1.06,0,0,0,.14,1h0a.73.73,0,0,0,.59.25,6.9,6.9,0,0,0-.88.74,5.93,5.93,0,0,0-1,1.31,1,1,0,0,0-.35-.31,1.1,1.1,0,0,1,0-1.49ZM112,7.88c.43.33.3,1.14-.27,1.1a.39.39,0,0,1-.41-.36.37.37,0,0,1,.07-.25.3.3,0,0,1,.43,0h0s-.16-.18-.28-.19h0c-.65,0-.52.83-.09,1,.16,0,.36,0,0,.15a.63.63,0,0,1-.65-.18.91.91,0,0,1-.12-.84.83.83,0,0,1,1-.54.88.88,0,0,1,.22.1Zm2.36.4h0a.47.47,0,0,1,.21.5A8.19,8.19,0,0,0,111.8,10h-.5v.42l-.35.29A6,6,0,0,0,109.32,15v.87a6.7,6.7,0,0,0,1.84,4.77A8.5,8.5,0,0,0,117.1,23h.47c3.94-.07,7.84-2.27,7.84-7.08V15a6,6,0,0,0-1.63-4.34l-.35-.29V10h-.5A8,8,0,0,0,120.2,8.8a.45.45,0,0,1,.21-.5h0A6.61,6.61,0,0,1,126,15v.88c0,4.85-3.84,7.63-8.59,7.63s-8.56-2.76-8.56-7.63V15a6.61,6.61,0,0,1,5.56-6.73Zm3,.28c1.29,0,2.33.18,2.33.39s-1,.38-2.33.38-2.26-.16-2.26-.43,1-.38,2.33-.38Zm-4.93,1.49a7.57,7.57,0,0,1,2.18-.86,6,6,0,0,0,2.75.44h0a6,6,0,0,0,2.86-.5,8.06,8.06,0,0,1,2.18.86Zm8.9,11.42h0a3.07,3.07,0,0,0,2.14-2.74V10.85l.1.09A5.62,5.62,0,0,1,125,15v.88c0,4.17-3.12,6.28-6.52,6.66l2.75-1.16Zm-7.91,0h0l2.75,1.16a7.76,7.76,0,0,1-4.78-2.14A6.33,6.33,0,0,1,109.63,16v-.87a5.64,5.64,0,0,1,1.49-4.1l.18-.22v7.8a3.07,3.07,0,0,0,2.13,2.75ZM117.28,16h-5.39V10.58h5.43v5.31Zm5.61,0H117.5V10.58h5.43v5.31Zm-5.44.18h5.44v2.6c0,.58-.2,1.48-1.8,2.21l-3.64,1.48V16.13Zm-5.6,0h5.43v6.28l-3.64-1.49c-1.62-.77-1.79-1.63-1.79-2.21V16.13ZM122.75,8a.84.84,0,0,1,1.16.22,1,1,0,0,1,.1.21.92.92,0,0,1-.12.85.63.63,0,0,1-.65.18c-.29-.12-.1-.09,0-.15.45-.16.58-1-.09-1h0c-.12,0-.28.07-.28.19h0a.3.3,0,0,1,.43,0,.4.4,0,0,1-.09.54.43.43,0,0,1-.25.07c-.56,0-.7-.77-.27-1.1Zm2.79,1.9a1.1,1.1,0,0,1,0,1.49.81.81,0,0,0-.35.31,6.31,6.31,0,0,0-1-1.31,6.9,6.9,0,0,0-.88-.74.73.73,0,0,0,.59-.25h0a1.08,1.08,0,0,0,.14-1,1.2,1.2,0,0,0-.21-.34l1.62,1.84Zm1.56,1.49a10.05,10.05,0,0,1,2.15,1.75,1.53,1.53,0,0,0-2.34,1.3v.27c0,.79,0,2.27-.91,2.69h0a9.28,9.28,0,0,0,.14-1.49V15a7.24,7.24,0,0,0-.78-3.39c.11-.34.82-.66,1.81-.38Zm4.1.09c1,.17,2,.81,3.13.5a1.43,1.43,0,0,0,.72-.77,1.31,1.31,0,0,0-.37-1.31c-1.48-1.32-3.22.46-4.86-.16-.64-.31-.43-.65-.46-1a.48.48,0,0,0,.34.35c1.76.6,3.54-1.13,5.18.17l.2.17a1.72,1.72,0,0,1,.46,1.68,1.72,1.72,0,0,1-1.38,1.48c-1.64.26-3-1.36-4.79,0l-.43-.47a2.85,2.85,0,0,1,2.24-.65Zm3,.17c-.46.51-1.29.23-1.79,0a2.9,2.9,0,0,1-.65-.28c0-.19.22-.16.35-.22a3.8,3.8,0,0,1,1.06-.24,1.34,1.34,0,0,1,.89.2.53.53,0,0,1,.14.51Zm-5.46-1c-.1-.13-.31-.27-.28-.47a5.85,5.85,0,0,0,4.16,0,1.58,1.58,0,0,1,1.88.63,1.1,1.1,0,0,1,0,.51c-.12,0-.12-.11-.13-.18-.51-.65-1.38-.42-2.08-.28-.27.16-.62.09-.91.21a2.83,2.83,0,0,1-2.62-.43Zm1,4.2a1.07,1.07,0,0,1-.76.44.93.93,0,0,1-.79-.4.86.86,0,0,1,0-.59.68.68,0,0,1,.63-.4c.15,0,.31,0,.35.22a.34.34,0,0,1,0,.34c-.09.2-.32.24-.53.27h0a.57.57,0,0,0,.56-.1.59.59,0,0,0,.18-.57.89.89,0,0,0-.71-.61c-1.74,0-.83,2.13-1.35,3.12-.22.43-.49,1-1.26.83,1.17-.5,1-2.4,1-3.06a1.33,1.33,0,0,1,1-1.4,1.47,1.47,0,0,1,1.48.44,1.39,1.39,0,0,1,.18,1.4Zm-1.49,4.72a4.12,4.12,0,0,1-1.32,2.12,1.2,1.2,0,0,0-.22-.82,1.33,1.33,0,0,0-1.11-.52,1.71,1.71,0,0,0-1,.33,7,7,0,0,0,1.49-3c.81-.1,2.43,0,2.21,1.87Zm.49,0a26.75,26.75,0,0,1,8.12-.77h0c0,.25.09,1,.12,1.26l-.7.21.25.8a30.3,30.3,0,0,0-9.36,1.26,5.09,5.09,0,0,0,1.59-2.76Zm8.8,2.28-3.08.3v-.46a7.69,7.69,0,0,1,3.13.16Zm1.9-.72a1.94,1.94,0,0,0-.89.56c-.13.25-.28.21-.49-.09a3.18,3.18,0,0,0-.9-1A1.81,1.81,0,0,1,139.4,21.12Zm-3.74,1.14,1.81-.21.42.3A3.07,3.07,0,0,1,135.66,22.26Zm-9-.31a.92.92,0,0,1-1.14.58.9.9,0,0,1-.24-.12c-.46-.36-.33-1.25.3-1.19a.41.41,0,0,1,.44.38.42.42,0,0,1-.07.27.34.34,0,0,1-.46,0h0s.18.2.31.21a.52.52,0,0,0,.28-.95c-.38-.34-1.39-.09-1.72.09-.09,0,.18-.71,1.23-.74a1.11,1.11,0,0,1,1.23,1,1.06,1.06,0,0,1-.06.5Zm-16.07-.71c-.34-.18-1.22-.51-1.74-.09s-.23,1,.28,1a.32.32,0,0,0,.32-.21c0-.12,0-.12,0,0a.34.34,0,0,1-.46,0,.41.41,0,0,1,.1-.58.37.37,0,0,1,.27-.07c.61,0,.75.84.29,1.18a.9.9,0,0,1-1.38-.46,1.12,1.12,0,0,1,1.18-1.48c1,0,1.32.79,1.23.74Zm-3.89-1.65c-.22-1.81,1.4-2,2.21-1.87a7,7,0,0,0,1.49,3,1.64,1.64,0,0,0-1-.33,1.31,1.31,0,0,0-1.11.52,1.2,1.2,0,0,0-.22.82,4.15,4.15,0,0,1-1.32-2.13Zm-7.85,1.82V19.1c1.32-.7,5-.12,7.42.53a5.06,5.06,0,0,0,1.59,2.76c-2-.75-7.35-1.84-8.91-1Zm3.27.79L99,21.9a7.69,7.69,0,0,1,3.13-.16v.46Zm-3,.52A16.65,16.65,0,0,1,94,22.26c-4.81-1.23-6.9-1.11-8.68-.67V19.14c1.78-.44,3.86-.56,8.68.67a12.63,12.63,0,0,0,4.66.34v1.9l2.24.21a3.8,3.8,0,0,1-1.84.43Zm-11-.18-2.78-.43a10.41,10.41,0,0,1,2.78-.31Zm55.82-2.3V20c0-.1,0-.12.12-.13a.47.47,0,0,1,.4,0,.69.69,0,0,1,.14.77h0Zm-1.11-.73c2.85-.62,8.56-1.14,10-.46v2.16c-1.13-.52-4.59-.33-7.62.08h0a1.76,1.76,0,0,0-.37-.35h0a.71.71,0,0,0,.27-.92c-.19-.3-.59-.33-1-.27l-.9.15a2.76,2.76,0,0,1-.39-.28Zm1.41-.69a6.29,6.29,0,0,0,2.45-.82,2.72,2.72,0,0,1,1.78,0h0l.59.49a55,55,0,0,0-5.58.59,3.19,3.19,0,0,1,.75-.34Zm8.9,2.86V20.06H159l-2.77,1.13,2.28.91h-6.08C153,22,153.1,21.9,153.14,21.68Zm-5.06.83v-1.1a18.7,18.7,0,0,1,4.23,0c-.23.32-.83.7-4.23,1.06ZM145.43,14a1.28,1.28,0,0,0,.29-.47c.42,0,.91,1,1.06,1.41C146.15,15,145.53,14.14,145.43,14Zm-.3-5.93a2.18,2.18,0,0,1,2.21-.3s0,.39-.62.42a5.21,5.21,0,0,0-1.22.37,2.9,2.9,0,0,0-.35-.49Zm-.5-.48c-.09-.28-.32-.25-.24-.49.43-.66,1.59-.68,1.9-.8a.58.58,0,0,1-.35.74l0,0a1.17,1.17,0,0,0-.83.3Zm-1.06-.83c-.38-.38-.41-.86.36-1.14a2.24,2.24,0,0,1,1-.19C144.92,6.22,143.6,6.57,143.57,6.78Zm-.86-.84-.25-.15c-.1-.09-.21-.17-.31,0s0,.12-.3.23c-.09-.6.43-.89,1-1.26.13-.09.33-.23.36-.41,0,.16.74.78-.45,1.48Zm5.54,3.36a1.65,1.65,0,0,1-1.21.21,1.54,1.54,0,0,0-1,.17,1.15,1.15,0,0,0-.21-.51A2.12,2.12,0,0,1,148.25,9.3ZM147.47,11a1.89,1.89,0,0,0-1.32-.22,2.72,2.72,0,0,0,0-.57,2.42,2.42,0,0,1,2.36.6,1,1,0,0,1-1,.19Zm-1.35.86a2.35,2.35,0,0,0,0-.53,1.32,1.32,0,0,1,1.59,1,.45.45,0,0,1,0,.16A3.59,3.59,0,0,0,146.12,11.87Zm1.16,1.86A8.55,8.55,0,0,0,146,13a1.34,1.34,0,0,1,.13-.44c.7-.19,1.32.9,1.48,1.08s-.14.15-.26.08Zm-6.45-5.64a.25.25,0,0,1,0,.5.26.26,0,0,1-.26-.25h0A.26.26,0,0,1,140.83,8.09ZM88.25,22.73v-.92a27.14,27.14,0,0,1,5.73,1,20.6,20.6,0,0,0,5.13.52,5.72,5.72,0,0,0,3.21-.95v-.57a27.81,27.81,0,0,1,3.83.73,16.16,16.16,0,0,0,2.76.6,1.51,1.51,0,0,0,.93-.24h0a1.65,1.65,0,0,0,.54-.89c.5,0,1.58.69,3.26,1.1a10.85,10.85,0,0,0,3.74.63h.46a10.54,10.54,0,0,0,3.29-.62c1.68-.4,2.76-1.1,3.25-1.1a1.65,1.65,0,0,0,.54.89h0a1.47,1.47,0,0,0,.93.24,15.24,15.24,0,0,0,2.76-.59,49.82,49.82,0,0,1,5.46-.73v.56a7.13,7.13,0,0,0,3.21.67c.79,0,.91-.56,2.05,0a3.64,3.64,0,0,0,2.3-.22,9.22,9.22,0,0,1,2.57,0c.44,0,.83-.31,1-1,.41,0,2.26-.39,2.53-.4v1.3h12.83l-3.6-1.48,3.6-1.48H153v-1a17.5,17.5,0,0,0-3.22-.4,10.8,10.8,0,0,0-1-.89,3.18,3.18,0,0,0-2.33-.09,5.82,5.82,0,0,1-2.22.73,3.4,3.4,0,0,0,0-1.19,1.6,1.6,0,0,1-.42-.75h0l.16-.14c1.29,1.31,1.4.82,1.77.71a.51.51,0,0,1-.25-.4,2.67,2.67,0,0,0,1.69-.23c-.7-.21-.52-.54-.52-.54a1.81,1.81,0,0,0,1.48-.52,1.49,1.49,0,0,1-.61-.68c1.24-.55.95-.68,1.3-.86a.92.92,0,0,1-.7-.52,4.53,4.53,0,0,0,1.23-.74,1.17,1.17,0,0,1-1-.76,1.91,1.91,0,0,0,1.48-1.29c-.9.16-1.17-.3-1.17-.3,1.11-.58,1.13-1.08,1-1.48a1.37,1.37,0,0,1-1.58-.15,2.37,2.37,0,0,0,.58-1.38,2,2,0,0,1-1.62,0,2.07,2.07,0,0,0-.1-1.6,1.75,1.75,0,0,1-1.23.58c.16-1.06-.09-1.31-.36-1.49-.28.55-.65.55-1.21.58-.37-1.48-.82-1.33-1.16-1.36,0,.41-.34.65-.67.87a1.9,1.9,0,0,0-1.19,1.77L137.32,5c-.5-.18-.83,0-.14.34l3.51,1.58c-.56.07-.83.72-1.29.84a12.48,12.48,0,0,0-2.15.76c-.53.25-.13,1-.49,1.33,0,.24-.09.54.12.69a1.29,1.29,0,0,0,.61.13.3.3,0,0,1-.08.22s-.1.18,0,.24a1.3,1.3,0,0,0,1.49.53c.28-.11.32-.43.58-.6.68-.41,1.3.2,1.84.49,0,.29-.34.4-.34.69h0a2.85,2.85,0,0,0,.75-.19,7.68,7.68,0,0,0,1.49-1.23,1.1,1.1,0,0,0,.14-1.28.9.9,0,0,0-.51-.34v.34a1.65,1.65,0,0,1-.72,1.31c-.74.31-1.21-.36-1.81-.63a1.08,1.08,0,0,0-1.48.58c-.16.08-.14.23-.31.24a.34.34,0,0,1-.36-.15c0-.24.25-.15.36-.28a1,1,0,0,1,.35-.3c.15-.07-.22-.28-.37-.4a1,1,0,0,0-.84.12.25.25,0,0,1-.23-.1.44.44,0,0,1,.09-.33c.09-.12.46,0,.6-.15A.53.53,0,0,0,138,8.9a.26.26,0,0,0-.27,0c0,.09-.09.12-.18.12s0-.15,0-.24.54-.13.79-.26c.49-.24,1.13-.15,1.57-.51.14,0,.11.15.16.23,0,.29-.35.35-.54.47a2.41,2.41,0,0,0,.71,0A2.34,2.34,0,0,0,142,8.44c0-.17-.25-.26-.34-.43a3.11,3.11,0,0,0-1.48-.25c.3-.49,1-.33,1.48-.43l.51.13a3.37,3.37,0,0,1,.25-.8c.53,0,.46.64.59,1a1.67,1.67,0,0,1,.76.15,4.22,4.22,0,0,1,1.62,3.92,5.35,5.35,0,0,1-.79,2.19c0,.24.45.35.15.51h0l.07.18h0l.2-.29.19.29.09.16h0c.16.34.16.53.55.79a.71.71,0,0,1-.85,0,.66.66,0,0,0-.28-.09l.37-.25a.77.77,0,0,0-.1-.41l-.24.35-.16-.35-.42.41.33.2c-.15.12-1,.14-.92-.61a.19.19,0,0,1,.32-.17c.05.07.08.2,0,.23.31.12.57-.16.2-.56a.33.33,0,0,1,0-.4h0c-.09,0-.18.18-.37.07-.48-.23-.67.12-.45.39a.14.14,0,0,1,.22,0c.12.12.15.24-.09.36s-1,0-.8-1a.56.56,0,0,1,.31.47l.33-.55-.36-.15.26-.25-.58-.36-.15.21-.3-.25-.32.55a.52.52,0,0,1,.56,0c-.73.65-1.2,0-1.2-.28s.21-.31.26-.24.11.19,0,.24c.33,0,.55-.25.12-.58-.17-.13-.12-.27-.1-.39h0a.33.33,0,0,1-.39.14c-.52-.15-.65.22-.4.44a.22.22,0,0,1,.23-.09A.24.24,0,0,1,141,13l-.08.08c-.61.4-1-.36-.95-.55l.32.21.15-.57h-.37l.24-.31c-.2,0-.31,0-.36.09v.62a.66.66,0,0,1-.12.33h-1.67a.21.21,0,0,0-.21.21.21.21,0,0,0,.21.21h1.57a.55.55,0,0,1-.18.22h0l.53.22a5.24,5.24,0,0,1-1,0h0a.38.38,0,0,1-.32.34h-.09a8.86,8.86,0,0,0-1.92.18.36.36,0,0,1-.42-.18.37.37,0,0,1,0,.21.4.4,0,0,1-.07.18h0a3.25,3.25,0,0,0-.42.41H136a10.32,10.32,0,0,0,4-.87,7,7,0,0,1,2.24.87l1,.7a2.45,2.45,0,0,0,.33,1.37,1.48,1.48,0,0,1-.54,2l0,0-.42.15h-.1l.59-.92A7.09,7.09,0,0,0,143,17v1.05a2.58,2.58,0,0,1-.65,1.06c-.17-.12-.79-.46-1-.6a6.73,6.73,0,0,0,.07-1h-.15c-.1.14-.21.6-.35.72s-.43.21-.58.43.26.09.37.18a14.25,14.25,0,0,1,2,1.25c.74.5,1.2.69,1.74,1.13.19.11.12.38.13.59-.3.49-1,.33-1.48.36a5.76,5.76,0,0,0-1.9.1c-.49.24-1.23.52-1.72,0a9,9,0,0,0-.79-.46c0-.22.3-.24.45-.36a.74.74,0,0,1,.86.09.33.33,0,0,0,.28-.09c.07-.09,0-.28.15-.28a2.68,2.68,0,0,0,1.76.25.46.46,0,0,0,.34-.1,10.74,10.74,0,0,0-1.18-.58,27,27,0,0,0-3.57-.77c-.23-.16-.37-.85-.41-1.11a4,4,0,0,1,.13-1.19c0-.21.3-.3.49-.46l-.16-.09a2.1,2.1,0,0,0-1.07.76,4.57,4.57,0,0,0,0,.74,17.25,17.25,0,0,0-2.69,0,.2.2,0,0,0-.19-.22.19.19,0,0,0-.19.1v.15h-.28a7.77,7.77,0,0,1,.26-1.16.21.21,0,0,0-.09-.28h0a.21.21,0,0,0-.27.1A4.06,4.06,0,0,0,133,18.7h-.27l.09-.36v-.18a.2.2,0,0,0-.14-.25.21.21,0,0,0-.26.15v.18a2.8,2.8,0,0,1-.12.5h0a26.63,26.63,0,0,0-3.44.61,2.54,2.54,0,0,0,0-.39,15.91,15.91,0,0,0,3-.65,27,27,0,0,1-3,.46,1.93,1.93,0,0,0-.13-.47,20.79,20.79,0,0,0,3.13-.49c-.34.07-2.45.4-3.38.46a1.68,1.68,0,0,0-.3-.4l-.27-.23a26.8,26.8,0,0,0,3.47-.47c-.38,0-2.71.28-3.76.3h0c.08-.14.16-.28.23-.42h0a13.31,13.31,0,0,0,1.9-.22h-1.84a3.83,3.83,0,0,0,.17-1.16,1.47,1.47,0,0,0,.89.3h.17c.51-.09.88-.15,1.12-.51h0a8.71,8.71,0,0,0,3,.3l.18-.31h0a.38.38,0,0,1,.21-.14.41.41,0,0,1,.22,0,.44.44,0,0,1-.1-.16v-.07a8.81,8.81,0,0,1-3.35-.26,2.07,2.07,0,0,0-.39-1.48h0v-.09c.73-1,2.31-.07,3.37.15a2.59,2.59,0,0,0,2.76-3.92c-1-1.67-2.76-1.24-4.54-.89-2.38.4-1.72-1.26-1.26-1.36-1.24,0-1.49,1.18-1.35,2.39a.92.92,0,0,1-.69-1.13l0-.12c-1.36,1.78.83,2.61,1.43,2.94-.32.15-.63.32-.94.5a5,5,0,0,0-1.48-1.08h0a3.28,3.28,0,0,0-.88-.12A1.85,1.85,0,0,0,126,9.42h0L124.5,7.78c-.78-.92-2.45-.61-2.47.63a1.22,1.22,0,0,0,0,.27l-.76-.3h0L121,8.31h-.25l-.34-.09a1.31,1.31,0,0,1,0-.28l.29-.62c0-.12-.11-.23-.32-.32v.48l-.36-.24-.18.64h.43a.72.72,0,0,1-.34.28h-.68a.57.57,0,0,1-.12-.18c-.12-.28.12-.41.22-.37s.2.15.17.23c.37,0,.44-.49-.14-.66a.35.35,0,0,1-.29-.35h0c0,.11,0,.28-.31.29-.6,0-.58.51-.23.64a.19.19,0,0,1,.18-.19c.18,0,.28.15.12.4a.58.58,0,0,1-.19.16h-.81a1.1,1.1,0,0,1-.32-.55.63.63,0,0,1,.58.27V6.78h-.43l.09-.4H117l.11.4h-.43v.71a.61.61,0,0,1,.53-.26,1,1,0,0,1-.35.56h-.78a.58.58,0,0,1-.19-.16c-.16-.25,0-.42.12-.4s.21.12.18.19c.35-.13.38-.58-.22-.64-.26,0-.27-.18-.32-.3h0a.36.36,0,0,1-.29.36c-.58.16-.51.59-.14.65a.24.24,0,0,1,.17-.22c.16,0,.34.15.34.43a.77.77,0,0,1-.14.21l-.74.12a.81.81,0,0,1-.35-.28H115l-.18-.64-.4.31V7c-.19.09-.3.19-.3.31l.3.62a1.5,1.5,0,0,1,0,.3,9.08,9.08,0,0,0-1.59.48,1.22,1.22,0,0,0,0-.27c0-1.26-1.69-1.56-2.48-.64l-1.48,1.65h0a1.82,1.82,0,0,0-.42,1.19,2.85,2.85,0,0,0-.87.11h0a4,4,0,0,0-1.12.78,3.6,3.6,0,0,0-1.11-.4c1.32-.15,2.55-2.31.18-3.77-3-1.27-1.92,2.43-.79.87-.81.42-.86-.58-.19-.58a.6.6,0,0,1-.1,1.19c-.84,0-1-.42-2-.58-5.53-1-4,6.69.11,4.81.65-.3,1.64-1.07,2.74-.79a2.78,2.78,0,0,0-1,2.24,10.82,10.82,0,0,1-5.94-1.58H99c-.41-.23-.63-1.37-.63-1.37a3.1,3.1,0,0,0-.64-.92h.41v-.1a2.45,2.45,0,0,0-.66-1.37,2.64,2.64,0,0,0,.34-.67C97,8.73,96.9,8.15,96.2,8c.18-.12.23-.5.27-.75-.21.2-.86-.17-1.48.16a1,1,0,0,1-.21.09h0L95,6.94c0-.08-.09-.17-.26-.26v.38l-.29-.19-.14.52h.35c0,.16-.73.59-1,0-.09-.24.11-.34.18-.31s.16.13.13.18c.32,0,.38-.42-.1-.55a.32.32,0,0,1-.24-.28h0c0,.1,0,.23-.26.25-.49,0-.48.41-.18.52A.17.17,0,0,1,93.3,7c.14,0,.23.12.1.33s-.82.5-1.08-.37a.49.49,0,0,1,.47.22V6.62h-.35l.07-.33h-.64l.08.33h-.36v.59A.49.49,0,0,1,92.06,7c-.26.87-1,.55-1.08.37s0-.34.1-.33.17.11.15.17c.3-.11.31-.48-.17-.52-.21,0-.23-.15-.27-.25h0a.32.32,0,0,1-.24.28c-.47.13-.41.49-.1.55a.19.19,0,0,1,.13-.18c.13,0,.28.07.18.31-.28.62-1,.19-1,0h.36l-.15-.52-.28.19V6.68c-.16.07-.25.16-.25.25l.25.52v0h-.25c-.63-.34-1.28,0-1.49-.16a1.57,1.57,0,0,0,.54.75,1.35,1.35,0,0,0-.76.36c-.16.19-.79.24-.79.24a7.32,7.32,0,0,0,.55.56c-.44.33-.44.95-.5,1.31a3.71,3.71,0,0,1-.39.89,1.23,1.23,0,0,0,.66,0,8.79,8.79,0,0,0-1.16,2.55,3.52,3.52,0,0,0,.62-.22,6.87,6.87,0,0,0,.39,2.62l.27-.5c.29.38-.48,1.59-1.21,1.63l-2.09.09a1.88,1.88,0,0,0-1,.43,5.51,5.51,0,0,1-1.48.45c-.2,0-.73.16-.74,1.48H75.12l3.6,1.48-3.6,1.49Z" fill="#0A1633"/>
      </g>
    </g>
  </g>
</svg>
