<svg width="92" height="37" viewBox="0 0 92 37" fill="none" xmlns="http://www.w3.org/2000/svg">
<path d="M45.7539 5.81088V11.6951H47.3413V5.81088H49.5049V4.47632H43.5903V5.81088H45.7539Z" fill="black"/>
<path d="M51.6617 5.65923V4.47632H50.226V5.65923H51.6617ZM50.226 6.46805V11.6951H51.6617V6.46805H50.226Z" fill="black"/>
<path d="M52.8326 6.46805V11.6951H54.2682V8.66199C54.2682 8.40586 54.3053 8.20028 54.3795 8.04526C54.4536 7.88349 54.5412 7.76217 54.6423 7.68129C54.7502 7.59366 54.858 7.53637 54.9659 7.50941C55.0804 7.47571 55.1714 7.45886 55.2388 7.45886C55.468 7.45886 55.6399 7.4993 55.7545 7.58018C55.8758 7.65433 55.96 7.75543 56.0072 7.88349C56.0611 8.01156 56.0915 8.1531 56.0982 8.30813C56.1049 8.45641 56.1083 8.60807 56.1083 8.76309V11.6951H57.544V8.78331C57.544 8.62155 57.5541 8.46315 57.5743 8.30813C57.6013 8.14636 57.6485 8.00482 57.7159 7.88349C57.79 7.75543 57.8877 7.65433 58.0091 7.58018C58.1371 7.4993 58.3023 7.45886 58.5045 7.45886C58.7067 7.45886 58.8651 7.49256 58.9796 7.55996C59.101 7.62737 59.192 7.71836 59.2526 7.83294C59.3133 7.94753 59.3504 8.08233 59.3638 8.23735C59.3773 8.39238 59.3841 8.55751 59.3841 8.73276V11.6951H60.8197V8.19691C60.8197 7.8599 60.7725 7.57344 60.6782 7.33754C60.5838 7.09489 60.4524 6.89942 60.2839 6.75114C60.1154 6.60285 59.9132 6.49501 59.6773 6.42761C59.4413 6.36021 59.1852 6.32651 58.9089 6.32651C58.5449 6.32651 58.2281 6.41413 57.9585 6.58937C57.6956 6.76462 57.4867 6.96682 57.3317 7.19599C57.1901 6.87246 56.9812 6.64667 56.7048 6.5186C56.4352 6.39054 56.1353 6.32651 55.805 6.32651C55.4613 6.32651 55.1546 6.40065 54.885 6.54893C54.6221 6.69722 54.3963 6.90616 54.2076 7.17577H54.1874V6.46805H52.8326Z" fill="black"/>
<path d="M65.473 8.52044H63.1375C63.1443 8.41934 63.1645 8.30476 63.1982 8.17669C63.2386 8.04863 63.3026 7.9273 63.3903 7.81272C63.4846 7.69814 63.606 7.60377 63.7542 7.52963C63.9093 7.44875 64.1014 7.40831 64.3305 7.40831C64.681 7.40831 64.9405 7.50267 65.109 7.6914C65.2843 7.88012 65.4056 8.15647 65.473 8.52044ZM63.1375 9.43037H66.9087C66.9356 9.02596 66.9019 8.6384 66.8076 8.26768C66.7132 7.89697 66.5582 7.5667 66.3425 7.27687C66.1335 6.98705 65.8639 6.75788 65.5337 6.58937C65.2034 6.41413 64.8158 6.32651 64.371 6.32651C63.9733 6.32651 63.6093 6.39728 63.2791 6.53882C62.9555 6.68037 62.6758 6.87583 62.4399 7.12522C62.204 7.36787 62.022 7.6577 61.8939 7.99471C61.7659 8.33172 61.7018 8.69569 61.7018 9.08662C61.7018 9.49103 61.7625 9.86174 61.8838 10.1988C62.0119 10.5358 62.1905 10.8256 62.4197 11.0682C62.6488 11.3109 62.9286 11.4996 63.2588 11.6344C63.5891 11.7625 63.9598 11.8265 64.371 11.8265C64.9641 11.8265 65.4696 11.6917 65.8875 11.4221C66.3054 11.1525 66.6155 10.7043 66.8177 10.0774H65.5539C65.5067 10.2392 65.3786 10.3942 65.1697 10.5425C64.9607 10.684 64.7113 10.7548 64.4215 10.7548C64.0171 10.7548 63.7071 10.6503 63.4914 10.4414C63.2757 10.2325 63.1577 9.89544 63.1375 9.43037Z" fill="black"/>
<path d="M68.8723 9.99655H67.5074C67.5209 10.347 67.5984 10.6402 67.7399 10.8761C67.8882 11.1053 68.0736 11.2907 68.296 11.4322C68.5251 11.5738 68.7846 11.6749 69.0745 11.7355C69.3643 11.7962 69.6609 11.8265 69.9642 11.8265C70.2608 11.8265 70.5506 11.7962 70.8337 11.7355C71.1235 11.6816 71.3796 11.5839 71.6021 11.4423C71.8245 11.3008 72.0031 11.1154 72.1379 10.8863C72.2794 10.6503 72.3502 10.3605 72.3502 10.0168C72.3502 9.77412 72.303 9.57192 72.2087 9.41015C72.1143 9.24164 71.9896 9.10347 71.8346 8.99563C71.6796 8.88104 71.5009 8.79005 71.2987 8.72265C71.1033 8.65525 70.9011 8.59795 70.6921 8.55077C70.4899 8.50359 70.2911 8.45978 70.0956 8.41934C69.9002 8.3789 69.7249 8.33509 69.5699 8.28791C69.4216 8.23398 69.3003 8.16658 69.2059 8.0857C69.1115 8.00482 69.0644 7.90034 69.0644 7.77228C69.0644 7.66444 69.0913 7.58018 69.1452 7.51952C69.1992 7.45212 69.2632 7.40157 69.3373 7.36787C69.4182 7.33417 69.5058 7.31395 69.6002 7.30721C69.6946 7.29373 69.7822 7.28698 69.8631 7.28698C70.1192 7.28698 70.3416 7.33754 70.5304 7.43864C70.7191 7.533 70.8236 7.71836 70.8438 7.99471H72.2087C72.1817 7.67118 72.0975 7.40494 71.9559 7.19599C71.8211 6.98031 71.6492 6.80843 71.4403 6.68037C71.2313 6.5523 70.9921 6.46131 70.7225 6.40739C70.4596 6.35347 70.1866 6.32651 69.9035 6.32651C69.6204 6.32651 69.3441 6.35347 69.0745 6.40739C68.8049 6.45457 68.5622 6.54219 68.3465 6.67026C68.1308 6.79158 67.9556 6.96008 67.8208 7.17577C67.6927 7.39146 67.6287 7.66781 67.6287 8.00482C67.6287 8.23398 67.6759 8.42945 67.7702 8.59121C67.8646 8.74624 67.9893 8.87767 68.1443 8.98552C68.2993 9.08662 68.4746 9.17087 68.6701 9.23827C68.8723 9.29894 69.0778 9.35286 69.2868 9.40004C69.799 9.50788 70.1967 9.61573 70.4798 9.72357C70.7696 9.83141 70.9146 9.99318 70.9146 10.2089C70.9146 10.3369 70.8842 10.4448 70.8236 10.5324C70.7629 10.6133 70.6854 10.6807 70.591 10.7346C70.5034 10.7818 70.4023 10.8189 70.2877 10.8458C70.1799 10.866 70.0754 10.8761 69.9743 10.8761C69.8327 10.8761 69.6946 10.8593 69.5598 10.8256C69.4317 10.7919 69.3171 10.7413 69.216 10.6739C69.1149 10.5998 69.0307 10.5088 68.9633 10.401C68.9026 10.2864 68.8723 10.1516 68.8723 9.99655Z" fill="black"/>
<path d="M43.5806 14.5869V21.8057H45.1679V18.6917H48.0898V21.8057H49.6771V14.5869H48.0898V17.3571H45.1679V14.5869H43.5806Z" fill="black"/>
<path d="M52.3989 15.7698V14.5869H50.9632V15.7698H52.3989ZM50.9632 16.5786V21.8057H52.3989V16.5786H50.9632Z" fill="black"/>
<path d="M55.9659 20.5722C55.7435 20.5722 55.5582 20.525 55.4099 20.4307C55.2616 20.3363 55.1403 20.215 55.0459 20.0667C54.9583 19.9184 54.8942 19.7533 54.8538 19.5713C54.8201 19.3826 54.8032 19.1938 54.8032 19.0051C54.8032 18.8097 54.8235 18.6243 54.8639 18.4491C54.9111 18.2671 54.9819 18.1087 55.0762 17.9739C55.1773 17.8323 55.2987 17.7211 55.4402 17.6402C55.5885 17.5593 55.7637 17.5189 55.9659 17.5189C56.2018 17.5189 56.3973 17.5627 56.5523 17.6503C56.7074 17.738 56.8321 17.8559 56.9264 18.0042C57.0208 18.1525 57.0882 18.3244 57.1286 18.5198C57.1691 18.7086 57.1893 18.9108 57.1893 19.1264C57.1893 19.3152 57.1623 19.4972 57.1084 19.6724C57.0612 19.8409 56.9871 19.9926 56.886 20.1274C56.7849 20.2622 56.6568 20.37 56.5018 20.4509C56.3468 20.5318 56.1681 20.5722 55.9659 20.5722ZM58.5542 21.472V16.5786H57.1893V17.2763H57.1691C56.9938 16.9729 56.7748 16.7573 56.5119 16.6292C56.2558 16.5011 55.9558 16.4371 55.6121 16.4371C55.2481 16.4371 54.9246 16.5079 54.6415 16.6494C54.3651 16.791 54.1326 16.9831 53.9439 17.2257C53.7551 17.4616 53.6102 17.738 53.5091 18.0548C53.4148 18.3648 53.3676 18.6883 53.3676 19.0253C53.3676 19.3826 53.408 19.723 53.4889 20.0465C53.5765 20.3633 53.7113 20.643 53.8933 20.8856C54.0753 21.1215 54.3078 21.3103 54.5909 21.4518C54.874 21.5866 55.211 21.654 55.602 21.654C55.9188 21.654 56.2187 21.59 56.5018 21.4619C56.7916 21.3271 57.014 21.1215 57.1691 20.8452H57.1893V21.5327C57.196 21.9034 57.105 22.2101 56.9163 22.4527C56.7343 22.6954 56.4411 22.8167 56.0367 22.8167C55.7806 22.8167 55.5548 22.7628 55.3593 22.6549C55.1638 22.5538 55.0324 22.3685 54.965 22.0989H53.5395C53.5597 22.3954 53.6406 22.6482 53.7821 22.8571C53.9304 23.0728 54.1124 23.2481 54.3281 23.3829C54.5505 23.5177 54.7931 23.6154 55.056 23.6761C55.3256 23.7435 55.5885 23.7772 55.8446 23.7772C56.4445 23.7772 56.923 23.6963 57.2803 23.5345C57.6375 23.3728 57.9105 23.1739 58.0992 22.938C58.2879 22.7089 58.4093 22.4595 58.4632 22.1899C58.5238 21.9203 58.5542 21.681 58.5542 21.472Z" fill="black"/>
<path d="M59.7101 14.5869V21.8057H61.1457V19.0658C61.1457 18.5333 61.2334 18.1525 61.4086 17.9233C61.5838 17.6874 61.8669 17.5695 62.2579 17.5695C62.6016 17.5695 62.8409 17.6773 62.9757 17.893C63.1105 18.1019 63.1779 18.4221 63.1779 18.8535V21.8057H64.6136V18.5906C64.6136 18.2671 64.5832 17.9739 64.5226 17.711C64.4687 17.4414 64.3709 17.2156 64.2294 17.0336C64.0878 16.8449 63.8924 16.7 63.643 16.5989C63.4003 16.491 63.0869 16.4371 62.7027 16.4371C62.4331 16.4371 62.1568 16.5079 61.8737 16.6494C61.5906 16.7842 61.358 17.0033 61.1761 17.3066H61.1457V14.5869H59.7101Z" fill="black"/>
<path d="M69.2216 18.631H66.8861C66.8928 18.5299 66.9131 18.4154 66.9468 18.2873C66.9872 18.1592 67.0512 18.0379 67.1389 17.9233C67.2332 17.8087 67.3545 17.7144 67.5028 17.6402C67.6579 17.5593 67.8499 17.5189 68.0791 17.5189C68.4296 17.5189 68.6891 17.6133 68.8576 17.802C69.0329 17.9907 69.1542 18.2671 69.2216 18.631ZM66.8861 19.541H70.6572C70.6842 19.1366 70.6505 18.749 70.5561 18.3783C70.4618 18.0076 70.3068 17.6773 70.0911 17.3875C69.8821 17.0976 69.6125 16.8685 69.2822 16.7C68.952 16.5247 68.5644 16.4371 68.1196 16.4371C67.7219 16.4371 67.3579 16.5079 67.0276 16.6494C66.7041 16.791 66.4244 16.9864 66.1885 17.2358C65.9526 17.4785 65.7706 17.7683 65.6425 18.1053C65.5145 18.4423 65.4504 18.8063 65.4504 19.1972C65.4504 19.6016 65.5111 19.9723 65.6324 20.3093C65.7605 20.6464 65.9391 20.9362 66.1683 21.1788C66.3974 21.4215 66.6772 21.6102 67.0074 21.745C67.3377 21.8731 67.7084 21.9371 68.1196 21.9371C68.7127 21.9371 69.2182 21.8023 69.6361 21.5327C70.054 21.2631 70.364 20.8149 70.5662 20.188H69.3025C69.2553 20.3498 69.1272 20.5048 68.9183 20.6531C68.7093 20.7946 68.4599 20.8654 68.1701 20.8654C67.7657 20.8654 67.4556 20.7609 67.24 20.552C67.0243 20.3431 66.9063 20.006 66.8861 19.541Z" fill="black"/>
<path d="M71.5087 16.5786V21.8057H72.9444V19.45C72.9444 19.2141 72.968 18.995 73.0152 18.7928C73.0623 18.5906 73.1399 18.4154 73.2477 18.2671C73.3623 18.112 73.5106 17.9907 73.6925 17.9031C73.8745 17.8155 74.097 17.7717 74.3598 17.7717C74.4475 17.7717 74.5384 17.7784 74.6328 17.7919C74.7272 17.7986 74.8081 17.8087 74.8755 17.8222V16.4877C74.7609 16.454 74.6564 16.4371 74.562 16.4371C74.38 16.4371 74.2048 16.4641 74.0363 16.518C73.8678 16.5719 73.7094 16.6494 73.5611 16.7505C73.4128 16.8449 73.2814 16.9628 73.1668 17.1044C73.0522 17.2392 72.9612 17.3875 72.8938 17.5492H72.8736V16.5786H71.5087Z" fill="black"/>
<path d="M43.5806 24.6189V31.8377H49.0604V30.5031H45.1679V28.7338H48.6661V27.5003H45.1679V25.9535H48.9795V24.6189H43.5806Z" fill="black"/>
<path d="M53.6953 29.209C53.6953 29.4247 53.6751 29.6336 53.6346 29.8358C53.5942 30.038 53.5268 30.22 53.4324 30.3818C53.3381 30.5368 53.21 30.6615 53.0482 30.7559C52.8932 30.8502 52.6977 30.8974 52.4618 30.8974C52.2394 30.8974 52.0473 30.8502 51.8856 30.7559C51.7305 30.6548 51.5991 30.5267 51.4913 30.3717C51.3901 30.2099 51.316 30.0279 51.2688 29.8257C51.2216 29.6235 51.1981 29.4213 51.1981 29.2191C51.1981 29.0034 51.2183 28.7978 51.2587 28.6024C51.3059 28.4002 51.3767 28.2215 51.471 28.0665C51.5721 27.9115 51.7036 27.7868 51.8653 27.6924C52.0271 27.5981 52.2259 27.5509 52.4618 27.5509C52.6977 27.5509 52.8932 27.5981 53.0482 27.6924C53.2033 27.7868 53.328 27.9115 53.4223 28.0665C53.5234 28.2148 53.5942 28.39 53.6346 28.5922C53.6751 28.7877 53.6953 28.9933 53.6953 29.209ZM53.7155 31.1704V31.8377H55.0804V24.6189H53.6447V27.2476H53.6245C53.4628 26.9914 53.2403 26.7994 52.9572 26.6713C52.6809 26.5365 52.3877 26.4691 52.0776 26.4691C51.6935 26.4691 51.3564 26.5466 51.0666 26.7016C50.7768 26.8499 50.5341 27.0487 50.3387 27.2981C50.15 27.5475 50.005 27.8373 49.9039 28.1676C49.8096 28.4911 49.7624 28.8282 49.7624 29.1786C49.7624 29.5426 49.8096 29.8931 49.9039 30.2301C50.005 30.5671 50.15 30.8671 50.3387 31.1299C50.5341 31.3861 50.7802 31.5916 51.0767 31.7467C51.3733 31.8949 51.717 31.9691 52.108 31.9691C52.4517 31.9691 52.7584 31.9084 53.028 31.7871C53.3044 31.659 53.5268 31.4535 53.6953 31.1704H53.7155Z" fill="black"/>
<path d="M61.069 31.8377V26.6106H59.6334V29.3505C59.6334 29.883 59.5457 30.2672 59.3705 30.5031C59.1953 30.7323 58.9122 30.8468 58.5212 30.8468C58.1775 30.8468 57.9382 30.7424 57.8034 30.5334C57.6686 30.3177 57.6012 29.9942 57.6012 29.5628V26.6106H56.1655V29.8257C56.1655 30.1492 56.1925 30.4458 56.2464 30.7154C56.3071 30.9783 56.4082 31.2041 56.5497 31.3928C56.6913 31.5748 56.8834 31.7163 57.126 31.8174C57.3754 31.9185 57.6922 31.9691 58.0764 31.9691C58.3797 31.9691 58.6763 31.9017 58.9661 31.7669C59.2559 31.6321 59.4918 31.413 59.6738 31.1097H59.7041V31.8377H61.069Z" fill="black"/>
<path d="M65.7175 28.4507H67.1228C67.1026 28.1137 67.0217 27.8239 66.8802 27.5812C66.7386 27.3318 66.5533 27.1263 66.3241 26.9645C66.1017 26.796 65.8455 26.6713 65.5557 26.5904C65.2726 26.5095 64.9761 26.4691 64.666 26.4691C64.2414 26.4691 63.8639 26.5399 63.5337 26.6814C63.2034 26.8229 62.9237 27.0218 62.6945 27.2779C62.4653 27.5273 62.2901 27.8272 62.1688 28.1777C62.0542 28.5215 61.9969 28.8956 61.9969 29.3C61.9969 29.6909 62.0609 30.0515 62.189 30.3818C62.3171 30.7053 62.4957 30.985 62.7248 31.2209C62.954 31.4568 63.2303 31.6422 63.5539 31.777C63.8841 31.9051 64.2448 31.9691 64.6357 31.9691C65.3299 31.9691 65.8995 31.7871 66.3443 31.4231C66.7892 31.0592 67.0588 30.5301 67.1531 29.8358H65.768C65.7209 30.1593 65.6029 30.4188 65.4142 30.6143C65.2322 30.803 64.9693 30.8974 64.6256 30.8974C64.4031 30.8974 64.2144 30.8468 64.0594 30.7457C63.9044 30.6446 63.7797 30.5166 63.6853 30.3616C63.5977 30.1998 63.5337 30.0212 63.4932 29.8257C63.4528 29.6302 63.4326 29.4381 63.4326 29.2494C63.4326 29.054 63.4528 28.8585 63.4932 28.663C63.5337 28.4608 63.6011 28.2788 63.6954 28.1171C63.7965 27.9486 63.9246 27.8138 64.0796 27.7127C64.2346 27.6048 64.4267 27.5509 64.6559 27.5509C65.2693 27.5509 65.6231 27.8508 65.7175 28.4507Z" fill="black"/>
<path d="M67.9035 28.2182C67.9237 27.8812 68.008 27.6014 68.1563 27.379C68.3046 27.1566 68.4933 26.978 68.7225 26.8432C68.9516 26.7084 69.2078 26.614 69.4908 26.5601C69.7807 26.4994 70.0705 26.4691 70.3603 26.4691C70.6232 26.4691 70.8894 26.4893 71.159 26.5297C71.4287 26.5634 71.6747 26.6342 71.8971 26.7421C72.1195 26.8499 72.3015 27.0016 72.4431 27.197C72.5846 27.3858 72.6554 27.6385 72.6554 27.9553V30.675C72.6554 30.9109 72.6688 31.1367 72.6958 31.3524C72.7228 31.568 72.77 31.7298 72.8374 31.8377H71.3815C71.3545 31.7568 71.3309 31.6759 71.3107 31.595C71.2972 31.5074 71.2871 31.4198 71.2804 31.3321C71.0512 31.5681 70.7816 31.7332 70.4715 31.8275C70.1615 31.9219 69.8447 31.9691 69.5212 31.9691C69.2718 31.9691 69.0392 31.9388 68.8236 31.8781C68.6079 31.8174 68.4191 31.7231 68.2574 31.595C68.0956 31.4669 67.9676 31.3052 67.8732 31.1097C67.7856 30.9143 67.7418 30.6817 67.7418 30.4121C67.7418 30.1155 67.7923 29.8729 67.8934 29.6842C68.0013 29.4887 68.1361 29.3337 68.2978 29.2191C68.4663 29.1045 68.6551 29.0203 68.864 28.9663C69.0797 28.9057 69.2954 28.8585 69.5111 28.8248C69.7268 28.7911 69.9391 28.7641 70.148 28.7439C70.357 28.7237 70.5423 28.6934 70.7041 28.6529C70.8658 28.6125 70.9939 28.5552 71.0883 28.481C71.1826 28.4002 71.2264 28.2856 71.2197 28.1373C71.2197 27.9823 71.1927 27.8609 71.1388 27.7733C71.0916 27.679 71.0242 27.6082 70.9366 27.561C70.8557 27.5071 70.758 27.4734 70.6434 27.4599C70.5356 27.4397 70.4176 27.4296 70.2896 27.4296C70.0065 27.4296 69.784 27.4902 69.6223 27.6115C69.4605 27.7329 69.3661 27.9351 69.3392 28.2182H67.9035ZM71.2197 29.2797C71.159 29.3337 71.0815 29.3775 70.9872 29.4112C70.8995 29.4381 70.8018 29.4617 70.694 29.482C70.5929 29.5022 70.485 29.519 70.3704 29.5325C70.2559 29.546 70.1413 29.5628 70.0267 29.5831C69.9188 29.6033 69.811 29.6302 69.7032 29.6639C69.6021 29.6976 69.5111 29.7448 69.4302 29.8055C69.356 29.8594 69.2954 29.9302 69.2482 30.0178C69.201 30.1054 69.1774 30.2166 69.1774 30.3514C69.1774 30.4795 69.201 30.5873 69.2482 30.675C69.2954 30.7626 69.3594 30.8334 69.4403 30.8873C69.5212 30.9345 69.6155 30.9682 69.7234 30.9884C69.8312 31.0086 69.9424 31.0187 70.057 31.0187C70.3401 31.0187 70.5592 30.9715 70.7142 30.8772C70.8692 30.7828 70.9838 30.6716 71.0579 30.5435C71.1321 30.4087 71.1759 30.2739 71.1894 30.1391C71.2096 30.0043 71.2197 29.8965 71.2197 29.8156V29.2797Z" fill="black"/>
<path d="M75.5896 26.6106V25.0435H74.1539V26.6106H73.2844V27.5711H74.1539V30.6548C74.1539 30.9176 74.1977 31.1299 74.2853 31.2917C74.373 31.4535 74.4909 31.5782 74.6392 31.6658C74.7942 31.7534 74.9695 31.8107 75.1649 31.8377C75.3671 31.8714 75.5795 31.8882 75.8019 31.8882C75.9434 31.8882 76.0883 31.8848 76.2366 31.8781C76.3849 31.8714 76.5197 31.8579 76.641 31.8377V30.7255C76.5736 30.739 76.5029 30.7491 76.4287 30.7559C76.3546 30.7626 76.2771 30.766 76.1962 30.766C75.9535 30.766 75.7918 30.7255 75.7109 30.6446C75.63 30.5638 75.5896 30.402 75.5896 30.1593V27.5711H76.641V26.6106H75.5896Z" fill="black"/>
<path d="M78.8002 25.8018V24.6189H77.3646V25.8018H78.8002ZM77.3646 26.6106V31.8377H78.8002V26.6106H77.3646Z" fill="black"/>
<path d="M81.2046 29.2292C81.2046 29.0203 81.2248 28.8147 81.2652 28.6125C81.3057 28.4103 81.3731 28.2316 81.4675 28.0766C81.5686 27.9216 81.7 27.7969 81.8618 27.7025C82.0235 27.6014 82.2257 27.5509 82.4684 27.5509C82.711 27.5509 82.9132 27.6014 83.075 27.7025C83.2435 27.7969 83.3749 27.9216 83.4693 28.0766C83.5704 28.2316 83.6412 28.4103 83.6816 28.6125C83.722 28.8147 83.7423 29.0203 83.7423 29.2292C83.7423 29.4381 83.722 29.6437 83.6816 29.8459C83.6412 30.0414 83.5704 30.22 83.4693 30.3818C83.3749 30.5368 83.2435 30.6615 83.075 30.7559C82.9132 30.8502 82.711 30.8974 82.4684 30.8974C82.2257 30.8974 82.0235 30.8502 81.8618 30.7559C81.7 30.6615 81.5686 30.5368 81.4675 30.3818C81.3731 30.22 81.3057 30.0414 81.2652 29.8459C81.2248 29.6437 81.2046 29.4381 81.2046 29.2292ZM79.7689 29.2292C79.7689 29.6471 79.833 30.0245 79.961 30.3616C80.0891 30.6986 80.2711 30.9884 80.507 31.231C80.7429 31.4669 81.026 31.6489 81.3562 31.777C81.6865 31.9051 82.0572 31.9691 82.4684 31.9691C82.8795 31.9691 83.2502 31.9051 83.5805 31.777C83.9175 31.6489 84.204 31.4669 84.4399 31.231C84.6758 30.9884 84.8578 30.6986 84.9858 30.3616C85.1139 30.0245 85.1779 29.6471 85.1779 29.2292C85.1779 28.8113 85.1139 28.4339 84.9858 28.0968C84.8578 27.7531 84.6758 27.4633 84.4399 27.2274C84.204 26.9847 83.9175 26.7994 83.5805 26.6713C83.2502 26.5365 82.8795 26.4691 82.4684 26.4691C82.0572 26.4691 81.6865 26.5365 81.3562 26.6713C81.026 26.7994 80.7429 26.9847 80.507 27.2274C80.2711 27.4633 80.0891 27.7531 79.961 28.0968C79.833 28.4339 79.7689 28.8113 79.7689 29.2292Z" fill="black"/>
<path d="M86.1114 26.6106V31.8377H87.5471V29.0978C87.5471 28.5653 87.6347 28.1845 87.8099 27.9553C87.9852 27.7194 88.2683 27.6014 88.6592 27.6014C89.003 27.6014 89.2422 27.7093 89.377 27.925C89.5118 28.1339 89.5792 28.4541 89.5792 28.8854V31.8377H91.0149V28.6226C91.0149 28.299 90.9846 28.0059 90.9239 27.743C90.87 27.4734 90.7723 27.2476 90.6307 27.0656C90.4892 26.8769 90.2937 26.732 90.0443 26.6308C89.8017 26.523 89.4882 26.4691 89.1041 26.4691C88.8007 26.4691 88.5042 26.5399 88.2143 26.6814C87.9245 26.8162 87.6886 27.0353 87.5066 27.3386H87.4763V26.6106H86.1114Z" fill="black"/>
<path d="M0 7.28182C0 3.26018 3.26018 0 7.28182 0H29.1273C33.1489 0 36.4091 3.26018 36.4091 7.28182V29.1273C36.4091 33.1489 33.1489 36.4091 29.1273 36.4091H7.28182C3.26018 36.4091 0 33.1489 0 29.1273V7.28182Z" fill="url(#paint0_linear_2039_25212)"/>
<path fill-rule="evenodd" clip-rule="evenodd" d="M19.0196 6.85596V16.5606H17.3888V6.85596H14.1267V29.5013H17.3888V19.7955H19.0196V29.5013H22.2811V6.85596H19.0196ZM6.0249 6.85669V10.0916H7.64785V29.502H10.8943V10.0916H12.5173V6.85669H6.0249ZM23.8917 29.5013V6.85596H30.384V10.0908H27.1376V16.5606H29.5723V19.7955H27.1376V26.2664H30.384V29.5013H23.8917Z" fill="white"/>
<defs>
<linearGradient id="paint0_linear_2039_25212" x1="-2.12543e-07" y1="11.5144" x2="35.3168" y2="26.1235" gradientUnits="userSpaceOnUse">
<stop stop-color="#FE4537"/>
<stop offset="0.509095" stop-color="#DE1B7C"/>
<stop offset="1" stop-color="#4352FF"/>
</linearGradient>
</defs>
</svg>
